<svg width="35" height="27" fill="none" xmlns="http://www.w3.org/2000/svg"><path d="M3.784 23.954C1.81 21.858.75 19.506.75 15.694.75 8.985 5.46 2.973 12.307 0l1.712 2.641C7.627 6.1 6.377 10.586 5.88 13.415c1.03-.533 2.377-.719 3.697-.596 3.458.32 6.183 3.158 6.183 6.687a6.708 6.708 0 01-6.708 6.708 7.42 7.42 0 01-5.267-2.26zm19.167 0c-1.974-2.096-3.034-4.448-3.034-8.26 0-6.709 4.709-12.721 11.557-15.694l1.712 2.641c-6.392 3.458-7.642 7.945-8.14 10.774 1.029-.533 2.376-.719 3.697-.596 3.458.32 6.183 3.158 6.183 6.687a6.708 6.708 0 01-6.708 6.708 7.42 7.42 0 01-5.267-2.26z" fill="#fff"/></svg>