<svg width="24" height="25" fill="none" xmlns="http://www.w3.org/2000/svg"><g clip-path="url(#clip0_533_1467)"><path d="M14.199 12.52l9.345-9.346a1.553 1.553 0 000-2.198 1.553 1.553 0 00-2.199 0L12 10.32 2.655.976a1.553 1.553 0 00-2.199 0 1.553 1.553 0 000 2.198l9.345 9.346-9.345 9.345a1.553 1.553 0 001.1 2.654 1.55 1.55 0 001.099-.455L12 14.718l9.345 9.346a1.55 1.55 0 001.1.455 1.553 1.553 0 001.1-2.654l-9.346-9.345z" fill="#fff"/></g><defs><clipPath id="clip0_533_1467"><path fill="#fff" transform="translate(0 .5)" d="M0 0h24v24H0z"/></clipPath></defs></svg>