<svg width="41" height="50" fill="none" xmlns="http://www.w3.org/2000/svg"><path fill-rule="evenodd" clip-rule="evenodd" d="M22.463 38.107l7.776-3.53V11.82h-19.67v16.562h11.894v9.725z" fill="url(#paint0_linear_196_1010)"/><path d="M7.077 44.154v4.43c0 1.14.533 1.416 1.581 1.416h3.511v-2.463H10.68v1.268H9.1c-.295 0-.442-.423-.442-.717v-3.603c0-.312.147-.46.441-.46h1.581v1.03h1.49v-2.5H8.767c-1.121.019-1.69.533-1.69 1.6zm19.486 3.456h-1.526v.625c-.037.203-.184.313-.441.313h-1.398c-.294 0-.44-.147-.44-.441v-1.122h2.279v-1.378h-2.28v-1.103c0-.313.147-.46.441-.46h1.398c.294 0 .44.147.44.46v.478h1.526v-.81c0-1.047-.551-1.58-1.672-1.58h-2.022c-1.122 0-1.673.533-1.673 1.58v4.155c0 1.14.533 1.691 1.58 1.691H25c1.048 0 1.58-.57 1.58-1.69v-.718h-.017zM5.57 48.989v-4.798c0-.588-.129-1.01-.405-1.25-.275-.239-.698-.367-1.305-.367H1.838c-1.03 0-1.544.44-1.544 1.323v1.25h1.507v-.735c0-.258.13-.368.368-.368h1.47c.258 0 .387.129.387.368v1.231h-2.5c-.92 0-1.379.405-1.379 1.214v2.132c0 .864.404 1.03 1.232 1.03h5.018v-.626l-.827-.404zm-1.563-.165H2.06c-.258 0-.386-.405-.386-.662v-.772c0-.258.128-.368.386-.368h1.948v1.802zm27.739-3.328H29.54v-2.922h-2.169v.625l.607.349V50h1.562v-3.07h2.206V50h1.563v-7.426h-1.563v2.922zM19.633 48.53c-.221-.037-.35-.184-.35-.442v-1.213c-.037-.588-.147-.993-.33-1.195-.184-.202-.626-.312-1.343-.312l1.085-1.36h1.268v-1.471h-1.948l-2.206 2.83h-.165v-2.83h-2.445v.606l.882.368v6.452h1.563v-3.18h1.636c.11 0 .22.037.312.092s.147.257.147.57v.588c0 .57.11 1.011.331 1.287.313.423.864.643 1.673.643h.533v-1.47c-.404.036-.607.036-.643.036zm19.007-5.956v2.922h-2.188v-2.922h-2.187v.625l.606.349V50h1.581v-3.07h2.188V50h1.58v-7.426h-1.58z" fill="#fff"/><path fill-rule="evenodd" clip-rule="evenodd" d="M0 0h40.165v38.18H30.24V11.82H10.57v16.562h11.894v9.798H0V0z" fill="url(#paint1_linear_196_1010)"/><defs><linearGradient id="paint0_linear_196_1010" x1="14.792" y1="11.117" x2="30.398" y2="36.088" gradientUnits="userSpaceOnUse"><stop stop-color="#90A4B2"/><stop offset=".278" stop-color="#BECBD3"/><stop offset=".631" stop-color="#D6DDE5"/><stop offset="1" stop-color="#B5BAC3"/></linearGradient><linearGradient id="paint1_linear_196_1010" x1="34.214" y1="-3.693" x2="5.96" y2="41.878" gradientUnits="userSpaceOnUse"><stop stop-color="#D4272B"/><stop offset=".102" stop-color="#E25146"/><stop offset=".412" stop-color="#DF514C"/><stop offset="1" stop-color="#C02222"/></linearGradient></defs></svg>