<svg width="57" height="58" fill="none" xmlns="http://www.w3.org/2000/svg"><path d="M38.324 27.125l-.275.275a.938.938 0 001.326 1.326l1.875-1.875a.938.938 0 000-1.326l-1.875-1.875a.938.938 0 00-1.326 1.326l.275.274H28.238a2.827 2.827 0 00-1.713-1.714v-6.335l.274.274a.938.938 0 001.326-1.325l-1.875-1.875a.937.937 0 00-1.326 0L23.05 16.15a.938.938 0 001.326 1.326l.274-.275v6.335a2.813 2.813 0 103.59 3.589h10.085zm-12.737 0a.937.937 0 110-1.874.937.937 0 010 1.874z" fill="#000"/><path d="M49.675 33.983a25.293 25.293 0 10-16.292 16.292 12.187 12.187 0 1016.292-16.292zM25.587 49.625c-12.923 0-23.437-10.514-23.437-23.438C2.15 13.264 12.664 2.75 25.587 2.75c12.924 0 23.438 10.514 23.438 23.438a23.395 23.395 0 01-1.096 7.103 12.076 12.076 0 00-1.838-.414 21.497 21.497 0 001.059-6.69c0-11.89-9.673-21.562-21.563-21.562-11.89 0-21.562 9.673-21.562 21.563 0 11.89 9.673 21.562 21.562 21.562 2.272.003 4.53-.354 6.69-1.058.09.622.228 1.236.413 1.837a23.4 23.4 0 01-7.103 1.096zm6.565-4.871a19.544 19.544 0 01-5.627 1.1v-.916a.937.937 0 10-1.875 0v.914a19.611 19.611 0 01-12.3-5.102l.641-.64a.936.936 0 10-1.326-1.326l-.64.64a19.612 19.612 0 01-5.103-12.298h.914a.938.938 0 000-1.875h-.914c.214-4.57 2.02-8.92 5.102-12.299l.774.774a.937.937 0 101.326-1.326l-.774-.773a19.611 19.611 0 0112.3-5.104v.914a.938.938 0 001.875 0v-.914c4.569.214 8.92 2.02 12.298 5.103l-.64.64a.938.938 0 001.325 1.326l.641-.64a19.611 19.611 0 015.103 12.298h-.915a.937.937 0 100 1.875h.916a19.561 19.561 0 01-1.1 5.627 12.201 12.201 0 00-12 12.002zM44.337 55.25A10.312 10.312 0 1154.65 44.937 10.324 10.324 0 0144.337 55.25z" fill="#000"/><path d="M49.6 40.447a.939.939 0 00-1.315.165l-5.91 7.599-2.062-2.062a.938.938 0 00-1.326 1.326l2.813 2.813a.937.937 0 00.662.275c.02 0 .04 0 .059-.002a.938.938 0 00.682-.36l6.562-8.438a.937.937 0 00-.164-1.316z" fill="#000"/></svg>