<svg width="56" height="60" fill="none" xmlns="http://www.w3.org/2000/svg"><path d="M38.25 40.994l-8.123 4.732a4.51 4.51 0 01-.72.34 3.59 3.59 0 00.157-.462c.445-1.66-.539-3.394-2.24-3.946a.937.937 0 00-.122-.03c-2.317-.418-4.612-1.248-6.455-1.914a59.708 59.708 0 00-1.774-.622c-2.16-.701-4.094.155-5.7 1.085l-5.854 3.39-.462-.817a2.136 2.136 0 00-2.908-.806l-2.279 1.29a2.136 2.136 0 00-.806 2.907l6.7 11.84a2.135 2.135 0 002.909.805l2.278-1.29a2.136 2.136 0 00.806-2.907l-.585-1.034 1.114-.643 10.317 2.765a6.8 6.8 0 001.764.238c1.175 0 2.31-.324 3.348-.963l14.741-9.077c1.44-.886 1.9-3.112.967-4.67-.452-.753-2.294-2.993-7.073-.21zm-26.322 14.87l-2.28 1.29a.262.262 0 01-.351-.097L2.596 45.218a.262.262 0 01.098-.352l2.279-1.29a.262.262 0 01.352.098l6.7 11.839a.262.262 0 01-.097.352zM43.373 44.28l-14.741 9.077c-1.117.687-2.342.859-3.644.51L14.296 51a.936.936 0 00-.711.094l-1.436.829-3.807-6.726 5.87-3.398c1.312-.76 2.726-1.397 4.182-.925.49.16 1.058.365 1.715.602 1.892.684 4.243 1.534 6.69 1.983.73.264 1.14.967.954 1.66-.197.735-.749 1.056-1.637.955-1.183-.244-2.312-.566-3.506-.907-.572-.163-1.163-.332-1.771-.495a.938.938 0 00-.486 1.811c.594.16 1.177.326 1.742.487 1.243.355 2.418.69 3.687.95l.02.003.017.004 1.01.164c1.563.25 2.95.006 4.242-.746l8.123-4.731c2.19-1.276 3.921-1.446 4.52-.447.404.675.229 1.76-.341 2.11zM5.527 45.674a.814.814 0 11-1.607.254.814.814 0 011.607-.254zm9.367-29.908l.392.768c.468.913.702 1.37.77 1.759.07.388.005.898-.122 1.916-.032.254-.068.537-.106.855a3.842 3.842 0 002.32 4.017c.294.126.557.237.793.336l.189.08-3.764 8.084a.937.937 0 001.012 1.32l4.15-.726 2.117 3.643a.937.937 0 001.66-.075l3.708-7.963-.104-.048c.685-.208 1.08-.313 1.408-.313.394 0 .886.152 1.865.454l.353.108 2.687 6.24a.936.936 0 001.657.123l2.222-3.58 4.128.846a.937.937 0 001.05-1.29l-3.068-7.122.275-.117a3.843 3.843 0 002.32-4.017l-.106-.855c-.128-1.018-.192-1.528-.123-1.917.068-.388.303-.846.77-1.758.118-.228.248-.482.392-.768a3.843 3.843 0 00-.805-4.568l-.63-.587c-.752-.698-1.13-1.048-1.327-1.389-.197-.341-.311-.843-.54-1.843-.056-.25-.12-.528-.193-.84a3.843 3.843 0 00-3.553-2.981c-.32-.018-.605-.032-.86-.045-1.025-.05-1.539-.076-1.91-.211-.37-.135-.78-.446-1.597-1.065l-.688-.519a3.843 3.843 0 00-4.638 0c-.23.172-.46.345-.688.519-.818.62-1.228.93-1.598 1.065-.37.135-.885.16-1.909.211-.256.013-.54.027-.86.045a3.842 3.842 0 00-3.554 2.981c-.073.312-.136.59-.193.84-.228 1-.343 1.502-.54 1.843-.197.341-.574.691-1.326 1.389l-.63.587a3.843 3.843 0 00-.806 4.568zm8.47 19.557l-1.543-2.655a.938.938 0 00-.972-.453l-3.025.529 2.961-6.36c.26.265.534.688 1.014 1.432.139.215.294.455.47.723a3.839 3.839 0 003.44 1.749l-2.345 5.035zm14.473-4.527a.936.936 0 00-.984.424l-1.62 2.61-1.54-3.577a3.844 3.844 0 002.672-1.714l.469-.723c.556-.861.835-1.294 1.137-1.547a2.63 2.63 0 01.52-.323l2.355 5.466-3.009-.616zm-20.855-18.23c.231-.217.438-.409.623-.58 1.786-1.657 1.877-1.814 2.419-4.19.056-.246.118-.52.19-.829a1.957 1.957 0 011.832-1.537l.85-.044c2.434-.121 2.604-.183 4.546-1.654l.679-.513a1.957 1.957 0 012.391 0l.68.513c1.941 1.471 2.111 1.533 4.545 1.654l.85.044c.905.05 1.624.654 1.831 1.537.072.308.135.583.191.83.542 2.375.633 2.532 2.419 4.189.185.172.392.363.623.58.661.62.824 1.545.415 2.354-.143.283-.272.533-.387.758-1.112 2.168-1.143 2.347-.84 4.764.032.251.067.53.104.845.108.9-.361 1.713-1.195 2.07-.261.112-.523.223-.784.333-2.245.946-2.384 1.062-3.706 3.109l-.463.714a1.957 1.957 0 01-2.247.817 93.662 93.662 0 01-.813-.249c-1.164-.359-1.791-.538-2.419-.538-.627 0-1.254.18-2.418.538-.242.075-.511.158-.814.25a1.957 1.957 0 01-2.247-.818l-.463-.714c-1.322-2.047-1.46-2.163-3.706-3.11l-.783-.331a1.956 1.956 0 01-1.196-2.071c.038-.314.073-.594.105-.845.303-2.417.271-2.595-.84-4.763a126.87 126.87 0 01-.387-.758 1.958 1.958 0 01.416-2.355zm12.335 12.196c5.042 0 9.145-4.103 9.145-9.146 0-5.042-4.103-9.145-9.145-9.145-5.043 0-9.146 4.103-9.146 9.146 0 5.042 4.103 9.145 9.146 9.145zm0-16.416c4.008 0 7.27 3.262 7.27 7.27 0 4.01-3.262 7.27-7.27 7.27-4.01 0-7.27-3.26-7.27-7.27 0-4.008 3.26-7.27 7.27-7.27zm-4.522 8.163a.938.938 0 111.326-1.326l1.619 1.62 4.805-4.361a.938.938 0 011.26 1.388l-5.466 4.961a.935.935 0 01-1.293-.03l-2.251-2.252zm30.613-9.643l-4.652-5.479a1.273 1.273 0 00-1.944 0L44.16 6.866a1.263 1.263 0 00-.185 1.36c.21.457.654.74 1.157.74h1.23v10.739c0 .89.723 1.613 1.613 1.613h3.618c.89 0 1.614-.724 1.614-1.613V8.967h1.229c.503 0 .946-.284 1.157-.74.211-.456.14-.978-.185-1.361zm-3.139.226a.938.938 0 00-.938.937v11.414h-3.095V8.029a.938.938 0 00-.937-.937h-.871l3.356-3.953 3.356 3.953h-.871zM4.198 8.967h1.229v10.738c0 .89.723 1.613 1.613 1.613h3.619c.89 0 1.613-.724 1.613-1.613V8.967H13.5c.503 0 .947-.284 1.158-.74.21-.456.14-.978-.186-1.361L9.821 1.387a1.273 1.273 0 00-1.944 0L3.226 6.866a1.263 1.263 0 00-.186 1.36c.211.457.655.74 1.158.74zm4.651-5.828l3.356 3.953h-.87a.937.937 0 00-.938.937v11.414H7.302V8.029a.937.937 0 00-.938-.937h-.87l3.355-3.953z" fill="#000"/></svg>