<svg width="61" height="60" fill="none" xmlns="http://www.w3.org/2000/svg"><g clip-path="url(#clip0_602_419)" fill="#000"><path d="M23.145 3.668a2.784 2.784 0 00-2.781 2.78 2.784 2.784 0 002.78 2.782 2.783 2.783 0 002.782-2.781 2.783 2.783 0 00-2.781-2.781zm0 3.787a1.007 1.007 0 010-2.012c.554 0 1.006.452 1.006 1.006s-.452 1.006-1.006 1.006zM8.233 3.668a2.784 2.784 0 00-2.78 2.78 2.785 2.785 0 002.78 2.782 2.785 2.785 0 002.781-2.781 2.784 2.784 0 00-2.78-2.781zm0 3.787a1.006 1.006 0 110-2.012 1.006 1.006 0 010 2.012zm7.457-3.787a2.785 2.785 0 00-2.783 2.78A2.785 2.785 0 0015.69 9.23a2.783 2.783 0 002.781-2.781 2.783 2.783 0 00-2.78-2.781zm0 3.787a1.007 1.007 0 010-2.012 1.006 1.006 0 010 2.012z"/><path d="M60.6 3.254A3.258 3.258 0 0057.346 0H3.854A3.258 3.258 0 00.6 3.254v39.171a3.258 3.258 0 003.254 3.255H9.58a.888.888 0 00.073 1.173l4.264 4.264a18.145 18.145 0 00-.836 2.018H7.05a.887.887 0 00-.888.887v5.09c0 .49.397.887.887.887h17.515c.49 0 .887-.397.887-.887a4.917 4.917 0 014.911-4.912 4.917 4.917 0 014.912 4.912c0 .49.397.887.887.887h17.515c.49 0 .887-.397.888-.887v-5.09a.887.887 0 00-.887-.887h-6.03a17.945 17.945 0 00-.839-2.018l4.266-4.264a.888.888 0 00.072-1.173h6.199a3.258 3.258 0 003.254-3.255V3.254zm-58.225 0a1.48 1.48 0 011.48-1.479h53.49a1.48 1.48 0 011.48 1.48v7.87H2.375v-7.87zm34.617 54.97c-.435-3.268-3.242-5.798-6.627-5.798a6.695 6.695 0 00-6.627 5.799H18.74a11.533 11.533 0 013.651-7.618.862.862 0 00.088-.097 11.507 11.507 0 013.025-2.007.802.802 0 00.122-.044 11.514 11.514 0 013.186-.9 9.11 9.11 0 01.39-.043v-.002a11.93 11.93 0 011.162-.058c6.128 0 11.168 4.755 11.622 10.769h-4.995zm8.108-7.906a.889.889 0 00-.156 1.045c.497.932.902 1.91 1.21 2.92a.887.887 0 00.849.628h5.787v3.314h-9.024c-.458-6.994-6.294-12.544-13.401-12.544-1.901 0-3.738.389-5.461 1.157a1.03 1.03 0 00-.093.047 13.305 13.305 0 00-3.558 2.365.746.746 0 00-.075.063 13.49 13.49 0 00-4.215 8.912H7.937V54.91h5.787a.89.89 0 00.85-.629c.308-1.01.713-1.987 1.21-2.919a.887.887 0 00-.156-1.045l-4.093-4.093.805-.804 5.136-5.137 4.093 4.094a.89.89 0 001.045.156 16.36 16.36 0 012.919-1.21.889.889 0 00.628-.85v-5.787h8.402v5.786c0 .39.256.735.628.85 1.01.31 1.988.715 2.92 1.21a.887.887 0 001.045-.155l4.093-4.094 5.136 5.137.805.804-4.093 4.093h.003zM17.64 20.75v5.225a.89.89 0 00.415.75l3.196 2.013c.29.181.656.181.946 0l3.195-2.012a.89.89 0 00.415-.751v-6.278l2.96 2.921v6.54l-3.41 3.408a.889.889 0 00-.26.628v1.734a.887.887 0 00-.71.87v6.03c-.69.238-1.363.518-2.02.836l-4.016-4.017v-5.454a.889.889 0 00-.26-.628l-3.41-3.409v-6.539l2.96-2.921v1.054zm20.188 4.455l-1.126-1.04 1.77-5.706h1.06l1.77 5.705-1.126 1.04a.889.889 0 00-.286.653v5.859h-1.774v-5.859a.893.893 0 00-.286-.652h-.002zm4.546 8.285v5.157l-4.017 4.017a18.17 18.17 0 00-2.02-.836v-6.03a.887.887 0 00-.71-.87v-1.437h6.746l.001-.001zm16.45-13.023v21.957a1.48 1.48 0 01-1.48 1.48h-7.963l-5.231-5.232v-6.07a.887.887 0 00-.888-.887h-1.597v-5.47l1.253-1.156a.888.888 0 00.246-.916l-2.13-6.863a.889.889 0 00-.848-.625H37.82a.886.886 0 00-.847.625l-2.13 6.863a.886.886 0 00.247.916l1.252 1.156v5.47h-1.597a.887.887 0 00-.887.887v2.307h-6.982v-1.348l3.409-3.409a.888.888 0 00.26-.627v-7.278a.887.887 0 00-.265-.632l-4.733-4.674a.887.887 0 00-1.512.631v7.913l-2.307 1.453-2.308-1.453v-7.913a.888.888 0 00-1.511-.631l-4.733 4.674a.886.886 0 00-.264.632v7.278c0 .236.094.46.26.629l3.409 3.409v5.11l-5.231 5.231H3.854a1.48 1.48 0 01-1.479-1.479V12.9h56.45v7.568-.001z"/></g><defs><clipPath id="clip0_602_419"><path fill="#fff" transform="translate(.6)" d="M0 0h60v60H0z"/></clipPath></defs></svg>