<svg width="61" height="60" fill="none" xmlns="http://www.w3.org/2000/svg"><path d="M40.175 39.375a3.75 3.75 0 00-3.75-3.75H24.359l.816-6.45a.46.46 0 000-.113c0-5.193-3.675-6.562-5.625-6.562a.937.937 0 00-.938.684l-3.75 13.022a7.19 7.19 0 01-2.812 2.972v-.74a.938.938 0 00-.938-.938H1.737a.938.938 0 00-.937.938v20.624a.938.938 0 00.937.938h9.375a.938.938 0 00.938-.938v-.628L17.422 60a.767.767 0 00.253 0h15.937a3.75 3.75 0 002.813-6.169 3.75 3.75 0 00.937-5.625 3.75 3.75 0 00.938-5.625 3.75 3.75 0 001.875-3.206zm-30 18.75h-7.5v-18.75h7.5v18.75zm23.437 0H17.806l-5.756-1.64V41.137c2.812-.647 4.51-3.994 4.584-4.154a1.22 1.22 0 00.066-.168l3.534-12.357c1.097.244 3.047 1.154 3.066 4.547l-.938 7.444a.937.937 0 00.938 1.05h13.125a1.875 1.875 0 110 3.75h-4.688a.938.938 0 000 1.875h3.75a1.875 1.875 0 110 3.75H30.8a.938.938 0 000 1.875h3.75a1.875 1.875 0 110 3.75h-4.688a.938.938 0 000 1.875h3.75a1.875 1.875 0 110 3.75zM12.987 14.062h.938V15a.938.938 0 001.875 0v-.938h.937a.938.938 0 000-1.874H15.8v-.938a.938.938 0 00-1.875 0v.938h-.938a.938.938 0 000 1.874zm38.438 32.813h-.938v-.938a.938.938 0 00-1.875 0v.938h-.937a.938.938 0 000 1.875h.937v.938a.938.938 0 001.875 0v-.938h.938a.938.938 0 000-1.875z" fill="#000"/><path d="M40.175 0A20.625 20.625 0 0019.55 20.625a.938.938 0 001.875 0 18.75 18.75 0 1122.322 18.413.941.941 0 10.178 1.875h.178A20.625 20.625 0 0040.175 0z" fill="#000"/><path d="M48.612 24.375a7.5 7.5 0 00-7.5-7.5h-1.875a1.875 1.875 0 110-3.75H45.8a2.812 2.812 0 100-5.625h-2.813V4.687a.938.938 0 00-.937-.937H38.3a.937.937 0 00-.938.938v3.056A7.5 7.5 0 0039.237 22.5h1.875a1.875 1.875 0 110 3.75H34.55a2.812 2.812 0 100 5.625h2.812v2.813a.938.938 0 00.938.937h3.75a.938.938 0 00.937-.938v-3.056a7.5 7.5 0 005.625-7.256zm-6.693 5.56a.937.937 0 00-.807.937v2.878h-1.875v-2.813A.938.938 0 0038.3 30h-3.75a.938.938 0 010-1.875h6.562a3.75 3.75 0 000-7.5h-1.875a5.625 5.625 0 01-.806-11.184.937.937 0 00.806-.938V5.625h1.875v2.813a.938.938 0 00.938.937h3.75a.937.937 0 010 1.875h-6.563a3.75 3.75 0 100 7.5h1.875a5.625 5.625 0 01.807 11.184z" fill="#000"/></svg>