<svg width="60" height="60" fill="none" xmlns="http://www.w3.org/2000/svg"><path d="M54 27h2V7a1 1 0 00-1-1H45v2h9v19zM.14 52.994c.044.189.101.374.173.554.031.076.08.143.115.216.074.16.158.316.253.465.137.2.291.388.461.561.012.012.02.026.03.037l.038.03c.173.171.36.325.561.462.15.094.304.179.465.253.073.036.14.084.216.115.18.072.365.13.554.173.067.017.128.046.2.059.261.054.527.08.794.081h23v-2H4c-.134 0-.268-.013-.4-.04-.046-.009-.089-.028-.134-.041a1.876 1.876 0 01-.24-.075 1.911 1.911 0 01-.2-.105c-.047-.027-.1-.048-.142-.077a2.047 2.047 0 01-.551-.551c-.029-.045-.05-.095-.077-.142a1.931 1.931 0 01-.105-.2 1.777 1.777 0 01-.075-.24c-.013-.045-.032-.088-.04-.134A2 2 0 014 50h3a1 1 0 001-1V8h25V6H8V1a1 1 0 00-1-1H4a4 4 0 00-4 4v48c0 .269.027.537.081.8.013.066.042.127.06.194zM2 4a2 2 0 012-2h2v46H4a3.969 3.969 0 00-2 .537V4z" fill="#000"/><path d="M34 46a1 1 0 001-1 6.909 6.909 0 00-2.049-4.943A6.827 6.827 0 0030 38.291V35h1a1 1 0 001-1v-4a1 1 0 00-1-1h-1v-4h-5.9a5.008 5.008 0 014.9-4h1v-3h3v-2h-3v-3a1 1 0 00-1-1H12a1 1 0 00-1 1v36a1 1 0 001 1h5v-4.9a5.008 5.008 0 014 4.9h12v-2h-3v-2h4zm-4-13h-2v-2h2v2zm-2-16v2.08A7 7 0 0022 26a1 1 0 001 1h5v2h-1a1 1 0 00-1 1v1h-9v-1a1 1 0 00-1-1h-3V18h3a1 1 0 001-1v-3h11v3zM13 31h2v2h-2v-2zm0-17h2v2h-2v-2zm0 34v-2h2v2h-2zm9.7 0a7.01 7.01 0 00-6.7-5 1 1 0 00-1 1h-2v-9h3a1 1 0 001-1v-1h9v1a1 1 0 001 1h1v4.09a1 1 0 00.843.988 4.827 4.827 0 012.693 1.392A4.897 4.897 0 0132.9 44H29a1 1 0 00-1 1v3h-5.3zM46 22h3v10h2V17a1 1 0 00-1-1h-4a1 1 0 00-1 1v4a1 1 0 001 1zm3-4v2h-2v-2h2zm10.383 9.076a1 1 0 00-1.09.217l-31 31A1 1 0 0028 60h31a1 1 0 001-1V28a1 1 0 00-.617-.924zM58 58H30.414L58 30.414V58z" fill="#000"/><path d="M42.076 53.383A1.002 1.002 0 0043 54h10a1 1 0 001-1V43a1 1 0 00-1.707-.707l-10 10a1 1 0 00-.217 1.09zM52 45.414V52h-6.586L52 45.414zm-13.857-8.899a.999.999 0 001.714 0l3-5A.998.998 0 0043 31V4a4 4 0 00-8 0v27c0 .182.05.36.143.515l3 5zM39 34.056L37.766 32h2.468L39 34.056zM37 30V8h4v22h-4zm2-28a2 2 0 012 2v2h-4V4a2 2 0 012-2z" fill="#000"/></svg>