<svg width="259" height="309" fill="none" xmlns="http://www.w3.org/2000/svg"><path d="M77.862 58c-30.764 0-50.69 12.583-66.333 35.024-2.838 4.07-1.963 9.652 1.996 12.648l16.626 12.586c3.998 3.026 9.686 2.318 12.816-1.596 9.654-12.075 16.816-19.027 31.896-19.027 11.857 0 26.523 7.618 26.523 19.097 0 8.677-7.175 13.133-18.883 19.686-13.653 7.641-31.72 17.151-31.72 40.941v3.766c0 5.1 4.142 9.234 9.25 9.234h27.932c5.109 0 9.25-4.134 9.25-9.234v-2.221c0-16.491 48.281-17.178 48.281-61.804 0-33.607-34.92-59.1-67.634-59.1zM74 201.694c-14.722 0-26.699 11.957-26.699 26.653C47.301 243.043 59.278 255 74 255c14.721 0 26.698-11.957 26.698-26.653 0-14.697-11.977-26.653-26.698-26.653z" fill="#fff" fill-opacity=".5"/><g clip-path="url(#clip0_501_2082)"><path d="M202.426 217.348c-11.392-7.644-21.938-7.875-33.38-3.344-2.076.822-3.157 3.133-2.445 5.241l2.988 8.852a4.093 4.093 0 005.148 2.586c6.614-2.13 11.016-2.958 16.6.789 4.391 2.946 7.904 9.448 5.014 13.754-2.184 3.256-5.963 3.144-11.948 2.693-6.979-.526-16.063-1.448-22.052 7.476l-.948 1.413c-1.284 1.913-.791 4.493 1.1 5.763l10.343 6.941c1.892 1.269 4.466.747 5.75-1.166l.559-.833c4.152-6.186 22.203 5.553 33.437-11.187 8.461-12.607 1.948-30.848-10.166-38.978zm-37.605 52.945c-5.451-3.658-12.896-2.149-16.596 3.365-3.699 5.513-2.274 12.974 3.177 16.632 5.451 3.659 12.896 2.149 16.596-3.364 3.7-5.513 2.275-12.974-3.177-16.633z" fill="#fff" fill-opacity=".5"/></g><g clip-path="url(#clip1_501_2082)"><path d="M226.073 113.648c-14.097 9.581-27.213 9.922-41.489 4.337-2.59-1.014-3.957-3.887-3.092-6.516l3.633-11.043a5.073 5.073 0 016.378-3.248c8.249 2.62 13.732 3.63 20.642-1.067 5.434-3.693 9.742-11.81 6.106-17.16-2.748-4.043-7.447-3.885-14.888-3.292-8.676.69-19.967 1.885-27.501-9.2l-1.193-1.756c-1.615-2.377-1.027-5.593 1.314-7.184l12.799-8.699c2.341-1.59 5.548-.954 7.164 1.423l.703 1.035c5.223 7.685 27.565-7.031 41.698 13.765 10.645 15.661 2.717 38.416-12.274 48.605zm-47.28-65.76c-6.746 4.584-16.021 2.742-20.676-4.107-4.655-6.848-2.953-16.15 3.793-20.735 6.746-4.585 16.021-2.743 20.676 4.106 4.654 6.849 2.953 16.15-3.793 20.735z" fill="#fff" fill-opacity=".5"/></g><defs><clipPath id="clip0_501_2082"><path fill="#fff" transform="rotate(33.865 -238.39 384.104)" d="M0 0h66v89H0z"/></clipPath><clipPath id="clip1_501_2082"><path fill="#fff" transform="scale(1 -1) rotate(34.201 319.31 240.482)" d="M0 0h82v111H0z"/></clipPath></defs></svg>