<svg width="35" height="27" viewBox="0 0 35 27" fill="none" xmlns="http://www.w3.org/2000/svg">
<path d="M3.78408 23.9545C1.80992 21.8577 0.75 19.5059 0.75 15.6937C0.75 8.98533 5.45925 2.97275 12.3075 0L14.0191 2.64117C7.627 6.09883 6.37733 10.5857 5.879 13.4148C6.90825 12.8819 8.25567 12.696 9.57625 12.8187C13.0339 13.1388 15.7594 15.9773 15.7594 19.5059C15.7594 21.2851 15.0526 22.9914 13.7946 24.2494C12.5365 25.5075 10.8302 26.2143 9.05108 26.2143C8.06718 26.2057 7.09481 26.0014 6.19058 25.6135C5.28634 25.2255 4.46831 24.6616 3.78408 23.9545ZM22.9508 23.9545C20.9766 21.8577 19.9167 19.5059 19.9167 15.6937C19.9167 8.98533 24.6259 2.97275 31.4742 0L33.1858 2.64117C26.7937 6.09883 25.544 10.5857 25.0457 13.4148C26.0749 12.8819 27.4223 12.696 28.7429 12.8187C32.2006 13.1388 34.9261 15.9773 34.9261 19.5059C34.9261 21.2851 34.2193 22.9914 32.9613 24.2494C31.7032 25.5075 29.9969 26.2143 28.2178 26.2143C27.2338 26.2057 26.2615 26.0014 25.3572 25.6135C24.453 25.2255 23.635 24.6616 22.9508 23.9545Z" fill="white"/>
</svg>
