<svg width="24" height="25" viewBox="0 0 24 25" fill="none" xmlns="http://www.w3.org/2000/svg">
<g clip-path="url(#clip0_533_1467)">
<path d="M14.1987 12.5197L23.544 3.17431C24.1521 2.56642 24.1521 1.58351 23.544 0.975694C22.9361 0.367802 21.9532 0.367802 21.3454 0.975694L11.9999 10.3211L2.65475 0.975694C2.04657 0.367802 1.06403 0.367802 0.456138 0.975694C-0.152046 1.58359 -0.152046 2.56642 0.456138 3.17431L9.8012 12.5197L0.456211 21.8651C-0.151973 22.473 -0.151973 23.4559 0.456211 24.0637C0.600405 24.2083 0.771753 24.323 0.960408 24.4012C1.14906 24.4794 1.35131 24.5195 1.55552 24.5193C1.95349 24.5193 2.35161 24.3669 2.65483 24.0637L11.9999 14.7184L21.3454 24.0637C21.4896 24.2083 21.661 24.323 21.8496 24.4011C22.0383 24.4793 22.2405 24.5195 22.4447 24.5193C22.8427 24.5193 23.2408 24.3669 23.544 24.0637C24.1521 23.4558 24.1521 22.473 23.544 21.8651L14.1987 12.5197Z" fill="white"/>
</g>
<defs>
<clipPath id="clip0_533_1467">
<rect width="24" height="24" fill="white" transform="translate(0 0.5)"/>
</clipPath>
</defs>
</svg>
