<svg width="10" height="18" viewBox="0 0 10 18" fill="none" xmlns="http://www.w3.org/2000/svg">
<path d="M6.26484 6.12277V4.64944C6.26276 4.47987 6.27285 4.31036 6.29504 4.14223C6.31627 4.01705 6.36359 3.89773 6.43392 3.79201C6.47237 3.73091 6.5226 3.67808 6.5817 3.63661C6.64079 3.59514 6.70756 3.56586 6.77809 3.55048C6.98787 3.50189 7.20287 3.47958 7.41815 3.48406H8.91563V0.603821H6.59091C5.25042 0.603821 4.2843 0.917809 3.70463 1.55182C3.06571 2.33759 2.75044 3.3374 2.82305 4.34753V6.12277H1.06592V9.00302H2.82305V17.3962H6.34334L6.26484 9.00302H8.56541L8.86733 6.12277H6.26484Z" stroke="white" stroke-width="1.20765" stroke-miterlimit="10"/>
</svg>
