<svg width="18" height="18" viewBox="0 0 18 18" fill="none" xmlns="http://www.w3.org/2000/svg">
<path d="M15.3494 0.603821H2.65097C1.52046 0.603821 0.604004 1.52028 0.604004 2.65078V15.3492C0.604004 16.4797 1.52046 17.3962 2.65097 17.3962H15.3494C16.4799 17.3962 17.3964 16.4797 17.3964 15.3492V2.65078C17.3964 1.52028 16.4799 0.603821 15.3494 0.603821Z" stroke="white" stroke-width="1.20765" stroke-miterlimit="10"/>
<path d="M9.00296 12.6139C10.9972 12.6139 12.6138 10.9972 12.6138 9.00301C12.6138 7.00878 10.9972 5.39214 9.00296 5.39214C7.00873 5.39214 5.39209 7.00878 5.39209 9.00301C5.39209 10.9972 7.00873 12.6139 9.00296 12.6139Z" stroke="white" stroke-width="1.20765" stroke-miterlimit="10"/>
<path d="M14.8424 4.22677C14.8436 4.43627 14.7825 4.6414 14.6668 4.81609C14.5512 4.99079 14.3862 5.12716 14.1929 5.20789C13.9995 5.28861 13.7866 5.31005 13.581 5.26947C13.3755 5.22889 13.1866 5.12812 13.0385 4.97998C12.8904 4.83184 12.7896 4.643 12.749 4.43746C12.7084 4.23192 12.7299 4.01896 12.8106 3.82563C12.8913 3.6323 13.0277 3.46733 13.2024 3.35168C13.3771 3.23603 13.5822 3.17492 13.7917 3.17611C14.0704 3.17611 14.3376 3.2868 14.5346 3.48384C14.7317 3.68088 14.8424 3.94811 14.8424 4.22677Z" fill="white"/>
</svg>
