<svg width="41" height="50" viewBox="0 0 41 50" fill="none" xmlns="http://www.w3.org/2000/svg">
<path fill-rule="evenodd" clip-rule="evenodd" d="M22.4632 38.1066L30.2389 34.5772V11.8199H10.5698V28.3824H22.4632V38.1066Z" fill="url(#paint0_linear_196_1010)"/>
<path d="M7.07715 44.1544V48.5846C7.07715 49.7243 7.61024 50 8.65803 50H12.1691V47.5368H10.6801V48.8051H9.09921C8.80509 48.8051 8.65803 48.3824 8.65803 48.0882V44.4853C8.65803 44.1728 8.80509 44.0257 9.09921 44.0257H10.6801V45.0551H12.1691V42.5551H8.76833C7.647 42.5735 7.07715 43.0882 7.07715 44.1544Z" fill="white"/>
<path d="M26.5625 47.6103H25.0367C25.0367 48.0147 25.0367 48.2169 25.0367 48.2353C25 48.4375 24.8529 48.5478 24.5956 48.5478H23.1985C22.9044 48.5478 22.7573 48.4007 22.7573 48.1066V46.9853H25.0367V45.6066H22.7573V44.5037C22.7573 44.1912 22.9044 44.0441 23.1985 44.0441H24.5956C24.8897 44.0441 25.0367 44.1912 25.0367 44.5037V44.9816H26.5625V44.1728C26.5625 43.125 26.011 42.5919 24.8897 42.5919H22.8676C21.7463 42.5919 21.1948 43.125 21.1948 44.1728V48.3272C21.1948 49.4669 21.7279 50.0184 22.7757 50.0184H25C26.0478 50.0184 26.5809 49.4485 26.5809 48.3272V47.6103H26.5625Z" fill="white"/>
<path d="M5.56977 48.989V44.1912C5.56977 43.603 5.44109 43.1802 5.16536 42.9412C4.88962 42.7022 4.46683 42.5735 3.86021 42.5735H1.83815C0.808737 42.5735 0.294031 43.0147 0.294031 43.8971V45.1471H1.80138V44.4118C1.80138 44.1544 1.93006 44.0441 2.16903 44.0441H3.63962C3.89697 44.0441 4.02565 44.1728 4.02565 44.4118V45.6434H1.52565C0.606531 45.6434 0.146973 46.0478 0.146973 46.8566V48.989C0.146973 49.853 0.551384 50.0184 1.37859 50.0184H6.39697V49.3934L5.56977 48.989ZM4.00727 48.8235H2.05874C1.80138 48.8235 1.67271 48.4191 1.67271 48.1618V47.3897C1.67271 47.1324 1.80138 47.0221 2.05874 47.0221H4.00727V48.8235Z" fill="white"/>
<path d="M31.7461 45.4963H29.5402V42.5735H27.9777H27.3711V43.1985L27.9777 43.5478V50H29.5402V46.9302H31.7461V50H33.3086V42.5735H31.7461V45.4963Z" fill="white"/>
<path d="M19.6326 48.5294C19.412 48.4927 19.2833 48.3456 19.2833 48.0882C19.2833 47.3713 19.2833 46.9669 19.2833 46.875C19.2465 46.2868 19.1362 45.8824 18.9524 45.6802C18.7686 45.478 18.3274 45.3677 17.6105 45.3677L18.6951 44.0074H19.9634V42.5368H18.0149L15.809 45.3677H15.6436V42.5368H13.1987V43.1434L14.0811 43.511V49.9632H15.6436V46.7831H17.2796C17.3899 46.7831 17.5002 46.8199 17.5921 46.875C17.684 46.9302 17.7392 47.1324 17.7392 47.4449C17.7392 47.5 17.7392 47.5919 17.7392 47.7206C17.7392 47.8493 17.7392 47.9596 17.7392 48.0331C17.7392 48.6029 17.8495 49.0441 18.0701 49.3199C18.3826 49.7427 18.934 49.9632 19.7428 49.9632H20.2759V48.4927C19.8715 48.5294 19.6693 48.5294 19.6326 48.5294Z" fill="white"/>
<path d="M38.6396 42.5735V45.4963H36.4522V42.5735H34.8713H34.2646V43.1985L34.8713 43.5478V50H36.4522V46.9302H38.6396V50H40.2205V42.5735H38.6396Z" fill="white"/>
<path fill-rule="evenodd" clip-rule="evenodd" d="M0 0H40.1654V38.1801H30.239V11.8199H10.5699V28.3824H22.4632V38.1801H0V0Z" fill="url(#paint1_linear_196_1010)"/>
<defs>
<linearGradient id="paint0_linear_196_1010" x1="14.7919" y1="11.1175" x2="30.3983" y2="36.0878" gradientUnits="userSpaceOnUse">
<stop stop-color="#90A4B2"/>
<stop offset="0.2784" stop-color="#BECBD3"/>
<stop offset="0.6314" stop-color="#D6DDE5"/>
<stop offset="1" stop-color="#B5BAC3"/>
</linearGradient>
<linearGradient id="paint1_linear_196_1010" x1="34.2141" y1="-3.69303" x2="5.95993" y2="41.8783" gradientUnits="userSpaceOnUse">
<stop stop-color="#D4272B"/>
<stop offset="0.102" stop-color="#E25146"/>
<stop offset="0.4118" stop-color="#DF514C"/>
<stop offset="1" stop-color="#C02222"/>
</linearGradient>
</defs>
</svg>
