<svg width="12" height="10" viewBox="0 0 12 10" fill="none" xmlns="http://www.w3.org/2000/svg">
<path d="M7.00287 6.66948C6.70432 6.86851 6.35754 6.97372 6 6.97372C5.64248 6.97372 5.2957 6.86851 4.99716 6.66948L0.0798984 3.3912C0.0527532 3.37305 0.0261104 3.35416 0 3.33455L0 8.70636C0 9.32225 0.499805 9.81104 1.10468 9.81104H10.8953C11.5112 9.81104 12 9.31123 12 8.70636V3.33453C11.9738 3.35419 11.9471 3.37312 11.9199 3.3913L7.00287 6.66948Z" fill="white"/>
<path d="M0.469922 2.80616L5.38718 6.08445C5.57332 6.20855 5.78665 6.27059 5.99998 6.27059C6.21333 6.27059 6.42668 6.20853 6.61282 6.08445L11.5301 2.80616C11.8243 2.6101 12 2.28198 12 1.92783C12 1.31891 11.5046 0.82353 10.8957 0.82353H1.10431C0.495399 0.823554 5.81274e-07 1.31893 5.81274e-07 1.92842C-0.000181964 2.10214 0.0426335 2.27321 0.124628 2.42636C0.206623 2.57951 0.325248 2.70999 0.469922 2.80616Z" fill="white"/>
</svg>
