<svg width="10" height="12" viewBox="0 0 10 12" fill="none" xmlns="http://www.w3.org/2000/svg">
<path d="M5 0C3.80701 0.00158748 2.66334 0.476203 1.81977 1.31977C0.976203 2.16334 0.501587 3.30701 0.5 4.5C0.5 7.73063 4.6925 11.7769 4.87063 11.9475C4.90527 11.9812 4.95168 12 5 12C5.04832 12 5.09473 11.9812 5.12937 11.9475C5.3075 11.7769 9.5 7.73063 9.5 4.5C9.49841 3.30701 9.0238 2.16334 8.18023 1.31977C7.33666 0.476203 6.19299 0.00158748 5 0ZM5 6.5625C4.59208 6.5625 4.19331 6.44154 3.85414 6.21491C3.51496 5.98828 3.2506 5.66616 3.0945 5.28928C2.93839 4.91241 2.89755 4.49771 2.97713 4.09763C3.05671 3.69754 3.25315 3.33004 3.54159 3.04159C3.83004 2.75315 4.19754 2.55671 4.59763 2.47713C4.99771 2.39755 5.41241 2.43839 5.78928 2.5945C6.16616 2.7506 6.48828 3.01496 6.71491 3.35414C6.94154 3.69331 7.0625 4.09208 7.0625 4.5C7.06215 5.0469 6.84474 5.57131 6.45802 5.95802C6.07131 6.34474 5.5469 6.56215 5 6.5625Z" fill="white"/>
</svg>
