<svg width="57" height="58" viewBox="0 0 57 58" fill="none" xmlns="http://www.w3.org/2000/svg">
<path d="M38.3237 27.125L38.0491 27.3996C37.8733 27.5754 37.7745 27.8139 37.7745 28.0625C37.7745 28.3112 37.8733 28.5496 38.0491 28.7255C38.2249 28.9013 38.4634 29.0001 38.712 29.0001C38.9607 29.0001 39.1992 28.9013 39.375 28.7255L41.25 26.8505C41.337 26.7634 41.4061 26.6601 41.4532 26.5463C41.5003 26.4326 41.5246 26.3107 41.5246 26.1875C41.5246 26.0644 41.5003 25.9425 41.4532 25.8288C41.4061 25.715 41.337 25.6117 41.25 25.5246L39.375 23.6496C39.1992 23.4738 38.9607 23.375 38.712 23.375C38.4634 23.375 38.2249 23.4738 38.0491 23.6496C37.8733 23.8254 37.7745 24.0639 37.7745 24.3125C37.7745 24.5612 37.8733 24.7996 38.0491 24.9755L38.3237 25.25H28.2383C28.0976 24.8552 27.8708 24.4966 27.5744 24.2002C27.278 23.9037 26.9194 23.677 26.5245 23.5363V17.2009L26.7991 17.4755C26.9749 17.6513 27.2134 17.7501 27.462 17.7501C27.7107 17.7501 27.9492 17.6513 28.125 17.4755C28.3008 17.2996 28.3996 17.0612 28.3996 16.8125C28.3996 16.5639 28.3008 16.3254 28.125 16.1496L26.25 14.2746C26.1629 14.1875 26.0596 14.1185 25.9458 14.0714C25.8321 14.0243 25.7102 14 25.587 14C25.4639 14 25.342 14.0243 25.2283 14.0714C25.1145 14.1185 25.0112 14.1875 24.9241 14.2746L23.0491 16.1496C22.8733 16.3254 22.7745 16.5639 22.7745 16.8125C22.7745 17.0612 22.8733 17.2996 23.0491 17.4755C23.2249 17.6513 23.4634 17.7501 23.712 17.7501C23.9607 17.7501 24.1992 17.6513 24.375 17.4755L24.6495 17.2009V23.5363C24.2015 23.6946 23.8009 23.9638 23.4851 24.3188C23.1693 24.6738 22.9485 25.103 22.8435 25.5664C22.7385 26.0298 22.7525 26.5123 22.8844 26.9688C23.0163 27.4253 23.2617 27.8409 23.5977 28.1769C23.9337 28.5129 24.3493 28.7583 24.8058 28.8901C25.2623 29.022 25.7447 29.0361 26.2081 28.9311C26.6715 28.826 27.1008 28.6053 27.4558 28.2895C27.8108 27.9737 28.08 27.5731 28.2383 27.125H38.3237ZM25.587 27.125C25.4016 27.125 25.2204 27.0701 25.0662 26.967C24.912 26.864 24.7919 26.7176 24.7209 26.5463C24.65 26.375 24.6314 26.1865 24.6676 26.0046C24.7037 25.8228 24.793 25.6557 24.9241 25.5246C25.0552 25.3935 25.2223 25.3042 25.4041 25.268C25.586 25.2319 25.7745 25.2504 25.9458 25.3214C26.1171 25.3924 26.2635 25.5125 26.3665 25.6667C26.4696 25.8209 26.5245 26.0021 26.5245 26.1875C26.5243 26.4361 26.4254 26.6744 26.2496 26.8501C26.0739 27.0259 25.8356 27.1248 25.587 27.125Z" fill="black"/>
<path d="M49.6753 33.9829C51.4207 28.5803 51.2976 22.7476 49.3258 17.4234C47.354 12.0993 43.6483 7.59339 38.8049 4.63092C33.9615 1.66846 28.2623 0.421726 22.6243 1.09138C16.9864 1.76104 11.7378 4.30813 7.72313 8.32273C3.70848 12.3373 1.16131 17.5859 0.491571 23.2238C-0.178166 28.8617 1.06848 34.561 4.03088 39.4044C6.99328 44.2479 11.4991 47.9537 16.8232 49.9256C22.1474 51.8974 27.9801 52.0206 33.3827 50.2753C34.233 52.0208 35.4881 53.5378 37.0434 54.7001C38.5986 55.8624 40.4091 56.6362 42.324 56.9571C44.2389 57.2781 46.2028 57.1368 48.052 56.5451C49.9012 55.9534 51.5823 54.9284 52.9553 53.5555C54.3282 52.1826 55.3532 50.5015 55.9449 48.6523C56.5366 46.8031 56.6779 44.8392 56.357 42.9243C56.0361 41.0094 55.2623 39.1989 54.1001 37.6436C52.9378 36.0883 51.4208 34.8332 49.6753 33.9829ZM25.5873 49.625C12.6639 49.625 2.14979 39.1109 2.14979 26.1875C2.14979 13.264 12.6639 2.74999 25.5873 2.74999C38.5107 2.74999 49.0248 13.264 49.0248 26.1875C49.0277 28.5974 48.6582 30.9933 47.9294 33.2905C47.3282 33.1049 46.7134 32.9665 46.0906 32.8767C46.7949 30.7169 47.1524 28.4592 47.1498 26.1875C47.1498 14.2979 37.4769 4.62499 25.5873 4.62499C13.6977 4.62499 4.02479 14.2979 4.02479 26.1875C4.02479 38.0771 13.6977 47.75 25.5873 47.75C27.859 47.7531 30.1168 47.3959 32.2766 46.6918C32.3664 47.3141 32.5047 47.9284 32.6901 48.5292C30.3931 49.258 27.9972 49.6277 25.5873 49.625ZM32.1521 44.7536C30.3406 45.3948 28.4444 45.7652 26.5248 45.8531V44.9375C26.5248 44.6888 26.426 44.4504 26.2502 44.2746C26.0744 44.0988 25.8359 44 25.5873 44C25.3386 44 25.1002 44.0988 24.9244 44.2746C24.7486 44.4504 24.6498 44.6888 24.6498 44.9375V45.8521C20.0806 45.6375 15.7302 43.8325 12.3512 40.7493L12.992 40.1085C13.0799 40.0217 13.1498 39.9183 13.1976 39.8043C13.2454 39.6903 13.2702 39.568 13.2706 39.4445C13.2709 39.3209 13.2469 39.1984 13.1997 39.0842C13.1526 38.9699 13.0834 38.8661 12.996 38.7787C12.9086 38.6913 12.8047 38.6221 12.6905 38.575C12.5762 38.5278 12.4538 38.5038 12.3302 38.5042C12.2066 38.5045 12.0843 38.5293 11.9703 38.5772C11.8564 38.625 11.753 38.6949 11.6661 38.7828L11.0255 39.4236C7.94232 36.0446 6.13728 31.6942 5.92264 27.125H6.83729C7.08593 27.125 7.32439 27.0262 7.5002 26.8504C7.67602 26.6746 7.77479 26.4361 7.77479 26.1875C7.77479 25.9388 7.67602 25.7004 7.5002 25.5246C7.32439 25.3488 7.08593 25.25 6.83729 25.25H5.92264C6.13733 20.6808 7.94236 16.3304 11.0255 12.9514L11.7989 13.7248C11.8856 13.8135 11.989 13.8841 12.1031 13.9325C12.2173 13.9809 12.3399 14.0062 12.4639 14.0069C12.5879 14.0076 12.7108 13.9837 12.8255 13.9366C12.9402 13.8895 13.0444 13.8201 13.1321 13.7324C13.2198 13.6447 13.2892 13.5405 13.3363 13.4259C13.3835 13.3112 13.4074 13.1883 13.4067 13.0643C13.406 12.9403 13.3808 12.8177 13.3324 12.7035C13.284 12.5893 13.2134 12.4859 13.1247 12.3992L12.3513 11.6258C15.7303 8.54259 20.0806 6.73751 24.6498 6.52284V7.43749C24.6498 7.68613 24.7486 7.92458 24.9244 8.1004C25.1002 8.27622 25.3386 8.37499 25.5873 8.37499C25.8359 8.37499 26.0744 8.27622 26.2502 8.1004C26.426 7.92458 26.5248 7.68613 26.5248 7.43749V6.52284C31.094 6.73748 35.4444 8.54252 38.8234 11.6257L38.1826 12.2664C38.0086 12.4426 37.9113 12.6805 37.9121 12.9282C37.9128 13.1758 38.0115 13.4131 38.1867 13.5882C38.3618 13.7633 38.5991 13.862 38.8467 13.8628C39.0944 13.8635 39.3323 13.7662 39.5085 13.5922L40.1491 12.9514C43.2323 16.3304 45.0373 20.6808 45.2519 25.25H44.3373C44.0886 25.25 43.8502 25.3488 43.6744 25.5246C43.4986 25.7004 43.3998 25.9388 43.3998 26.1875C43.3998 26.4361 43.4986 26.6746 43.6744 26.8504C43.8502 27.0262 44.0886 27.125 44.3373 27.125H45.2528C45.1645 29.0446 44.7938 30.9408 44.1527 32.7523C40.9859 32.8039 37.9633 34.0849 35.7238 36.3245C33.4843 38.5641 32.2035 41.5868 32.1521 44.7536ZM44.3373 55.25C42.2977 55.25 40.3039 54.6452 38.608 53.512C36.9121 52.3789 35.5903 50.7683 34.8098 48.8839C34.0293 46.9995 33.825 44.926 34.2229 42.9256C34.6208 40.9252 35.603 39.0877 37.0452 37.6454C38.4875 36.2032 40.325 35.221 42.3254 34.8231C44.3258 34.4252 46.3993 34.6295 48.2837 35.41C50.1681 36.1905 51.7787 37.5123 52.9118 39.2082C54.045 40.9041 54.6498 42.8979 54.6498 44.9375C54.6467 47.6716 53.5592 50.2928 51.6259 52.2261C49.6926 54.1594 47.0714 55.2469 44.3373 55.25Z" fill="black"/>
<path d="M49.6006 40.4475C49.5034 40.3719 49.3923 40.3162 49.2736 40.2835C49.1549 40.2508 49.0309 40.2418 48.9087 40.2571C48.7866 40.2723 48.6686 40.3115 48.5616 40.3723C48.4545 40.4331 48.3605 40.5144 48.2849 40.6116L42.3744 48.2109L40.3129 46.1492C40.137 45.9734 39.8986 45.8746 39.6499 45.8746C39.4013 45.8746 39.1628 45.9734 38.987 46.1492C38.8112 46.325 38.7124 46.5635 38.7124 46.8121C38.7124 47.0608 38.8112 47.2992 38.987 47.475L41.7995 50.2875C41.8865 50.3747 41.9899 50.4438 42.1036 50.491C42.2174 50.5381 42.3393 50.5624 42.4624 50.5625C42.4818 50.5625 42.5012 50.5625 42.521 50.5606C42.6537 50.5523 42.7831 50.516 42.9007 50.4539C43.0182 50.3918 43.1212 50.3054 43.2028 50.2005L49.7653 41.763C49.9179 41.5667 49.9862 41.3178 49.9553 41.0711C49.9244 40.8245 49.7968 40.6001 49.6006 40.4475Z" fill="black"/>
</svg>
