<svg width="56" height="60" viewBox="0 0 56 60" fill="none" xmlns="http://www.w3.org/2000/svg">
<path d="M38.2503 40.9944L30.1274 45.7256C29.8982 45.8601 29.6573 45.9737 29.4078 46.0651C29.4699 45.9152 29.5221 45.7613 29.564 45.6045C30.0091 43.9432 29.0254 42.21 27.3244 41.6585C27.2843 41.6455 27.2433 41.6352 27.2017 41.6277C24.8852 41.2099 22.5905 40.3804 20.7468 39.7138C20.1019 39.4806 19.4927 39.2604 18.9726 39.0918C16.8121 38.3907 14.8789 39.247 13.2728 40.1768L7.41896 43.5661L6.95701 42.7498C6.37752 41.726 5.07322 41.3645 4.04935 41.9439L1.77029 43.2337C0.746542 43.8131 0.384901 45.1174 0.964276 46.1413L7.66482 57.9806C8.05693 58.6733 8.7808 59.0629 9.52517 59.0629C9.88096 59.0629 10.2413 58.9739 10.5725 58.7865L12.8515 57.4966C13.8753 56.9171 14.2368 55.6129 13.6574 54.589L13.0724 53.5553L14.1862 52.9123L24.5031 55.6766C25.0963 55.8356 25.6866 55.9147 26.2673 55.9146C27.442 55.9146 28.577 55.5911 29.6147 54.9521L44.356 45.8752C45.7952 44.9891 46.2558 42.7629 45.3227 41.2047C44.8714 40.4518 43.0285 38.2116 38.2503 40.9944ZM11.9279 55.8649L9.64881 57.1548C9.52681 57.2237 9.36557 57.1792 9.29654 57.0572L2.59599 45.218C2.52697 45.096 2.57174 44.9347 2.69361 44.8657L4.97267 43.5758C5.01078 43.5544 5.05377 43.5432 5.09748 43.5434C5.18842 43.5434 5.27807 43.5906 5.32494 43.6734L12.0255 55.5127C12.0945 55.6347 12.0499 55.7959 11.9279 55.8649ZM43.3728 44.2789L28.6317 53.3559C27.5153 54.0431 26.2897 54.2148 24.9884 53.8659L14.2962 51.0011C14.1773 50.9692 14.0533 50.961 13.9313 50.9771C13.8092 50.9932 13.6915 51.0331 13.5849 51.0947L12.1488 51.9238L8.3424 45.198L14.2122 41.7995C15.5235 41.0402 16.9379 40.4029 18.394 40.8754C18.8845 41.0344 19.452 41.2396 20.1093 41.4772C22.0014 42.1613 24.3519 43.011 26.7991 43.4604C27.5296 43.7236 27.9381 44.4274 27.7528 45.1194C27.5556 45.855 27.0044 46.176 26.1158 46.0752C24.9325 45.8312 23.8036 45.5092 22.6096 45.1682C22.038 45.0049 21.4469 44.8362 20.8386 44.673C20.5998 44.6129 20.347 44.6492 20.1347 44.7739C19.9224 44.8986 19.7677 45.1018 19.704 45.3396C19.6403 45.5774 19.6727 45.8308 19.7942 46.0449C19.9156 46.2591 20.1165 46.4169 20.3533 46.4842C20.9469 46.6432 21.5303 46.8098 22.0947 46.971C23.3384 47.3262 24.5131 47.6617 25.782 47.921C25.7883 47.9223 25.7948 47.9228 25.8011 47.9239C25.8072 47.9251 25.8132 47.9269 25.8193 47.9278L26.8299 48.0921C28.3922 48.3421 29.7794 48.0979 31.0709 47.3457L39.1939 42.6145C41.3832 41.3394 43.1151 41.1686 43.7138 42.1682C44.118 42.8432 43.9427 43.928 43.3728 44.2789ZM5.52732 45.6738C5.54412 45.7802 5.53965 45.8888 5.51417 45.9934C5.4887 46.0979 5.44272 46.1964 5.37891 46.2831C5.3151 46.3698 5.23472 46.443 5.14243 46.4984C5.05014 46.5538 4.94778 46.5904 4.84126 46.606C4.73474 46.6215 4.6262 46.6158 4.5219 46.5892C4.41761 46.5625 4.31965 46.5154 4.23369 46.4506C4.14773 46.3858 4.07548 46.3046 4.02113 46.2116C3.96678 46.1187 3.9314 46.0159 3.91705 45.9093C3.88849 45.697 3.9448 45.482 4.07374 45.3109C4.20268 45.1399 4.39386 45.0266 4.60581 44.9956C4.81776 44.9646 5.03338 45.0184 5.2059 45.1454C5.37841 45.2724 5.49391 45.4622 5.52732 45.6738ZM14.894 15.7664C15.0385 16.0523 15.1687 16.3062 15.2855 16.5341C15.7535 17.4465 15.9883 17.9044 16.0567 18.2926C16.1252 18.6807 16.0612 19.1914 15.9336 20.209C15.9017 20.4632 15.8662 20.7462 15.8282 21.0642C15.6224 22.7846 16.5544 24.3989 18.1474 25.0811C18.4419 25.2071 18.7047 25.3179 18.9407 25.4174L19.13 25.4972L15.3664 33.5809C15.2941 33.7362 15.2657 33.9084 15.2844 34.0787C15.303 34.249 15.368 34.4109 15.4723 34.5469C15.5765 34.6829 15.716 34.7877 15.8756 34.85C16.0352 34.9122 16.2088 34.9296 16.3776 34.9001L20.5283 34.1749L22.6453 37.8179C22.7313 37.9661 22.8564 38.0878 23.0068 38.1699C23.1572 38.252 23.3272 38.2913 23.4984 38.2835C23.6695 38.2757 23.8353 38.2212 23.9776 38.1258C24.12 38.0305 24.2335 37.8979 24.3058 37.7426L28.0127 29.7805L27.9091 29.7322C28.594 29.5238 28.9894 29.4189 29.3166 29.4189C29.7108 29.4189 30.2027 29.5706 31.1824 29.873L31.5345 29.9815L34.2219 36.221C34.2896 36.3784 34.3992 36.5141 34.5388 36.6136C34.6783 36.713 34.8424 36.7723 35.0133 36.785C35.1841 36.7978 35.3552 36.7634 35.5079 36.6857C35.6606 36.608 35.7891 36.49 35.8795 36.3444L38.1011 32.7642L42.2289 33.6096C42.3968 33.644 42.5708 33.6317 42.7322 33.5741C42.8936 33.5165 43.0361 33.4158 43.1442 33.2829C43.2524 33.15 43.322 32.99 43.3456 32.8203C43.3692 32.6506 43.3459 32.4777 43.2781 32.3203L40.2106 25.1982C40.2995 25.1605 40.3905 25.1217 40.4859 25.0809C42.0787 24.3988 43.0107 22.7845 42.8051 21.0641C42.7671 20.7459 42.7317 20.4628 42.6998 20.2086C42.5722 19.1912 42.5081 18.6806 42.5766 18.2924C42.6451 17.9043 42.8799 17.4462 43.3478 16.5337C43.4647 16.3058 43.5949 16.0521 43.7394 15.7662C44.521 14.2199 44.1973 12.3841 42.9339 11.1983C42.7243 11.0018 42.5141 10.806 42.3033 10.6107C41.5516 9.91348 41.1744 9.56344 40.9772 9.22207C40.7801 8.8807 40.6656 8.37891 40.4376 7.37918C40.3806 7.12945 40.3172 6.85137 40.2441 6.53941C39.849 4.85238 38.421 3.65414 36.691 3.55793C36.3712 3.54012 36.0862 3.52594 35.8304 3.51328C34.8063 3.46231 34.2923 3.43664 33.9219 3.30188C33.5514 3.16711 33.1413 2.85633 32.324 2.23723C32.1197 2.08254 31.8924 1.91016 31.6359 1.7182C30.2486 0.680039 28.3846 0.680039 26.9976 1.7182C26.7678 1.89048 26.5384 2.06341 26.3096 2.23699C25.4923 2.85621 25.082 3.16711 24.7116 3.30188C24.3412 3.43664 23.8272 3.46231 22.8031 3.51328C22.5473 3.52594 22.2624 3.54012 21.9425 3.55793C20.2124 3.65414 18.7845 4.85227 18.3894 6.53941C18.3162 6.85137 18.2528 7.12934 18.1959 7.37906C17.9678 8.37879 17.8533 8.88059 17.6562 9.22195C17.4591 9.56332 17.0819 9.91324 16.3303 10.6105C16.1194 10.8058 15.9092 11.0017 15.6995 11.1982C14.436 12.3843 14.1124 14.22 14.894 15.7664ZM23.364 35.3229L21.8211 32.6679C21.7247 32.5022 21.5799 32.3699 21.4061 32.289C21.2324 32.2081 21.038 32.1824 20.8491 32.2154L17.8242 32.7439L20.7853 26.3839C21.0453 26.6489 21.3189 27.0724 21.799 27.8157C21.938 28.031 22.0928 28.2707 22.2681 28.5389C23.0422 29.7224 24.3513 30.3642 25.7081 30.2879L23.364 35.3229ZM37.8372 30.7963C37.6494 30.7578 37.4543 30.7778 37.2783 30.8537C37.1022 30.9295 36.9536 31.0575 36.8526 31.2204L35.2334 33.8296L33.6931 30.253C34.7619 30.0981 35.7387 29.4963 36.365 28.5388C36.5403 28.2708 36.695 28.0311 36.834 27.816C37.3903 26.9545 37.6694 26.5221 37.9714 26.2688C38.1035 26.158 38.2685 26.0575 38.4912 25.946L40.8455 31.4123L37.8372 30.7963ZM16.9825 12.5657C17.2133 12.3491 17.4197 12.1575 17.6053 11.9855C19.3913 10.3286 19.4817 10.1719 20.0237 7.79648C20.0799 7.54992 20.1425 7.27535 20.2147 6.96738C20.4216 6.08402 21.1406 5.48074 22.0464 5.43035C22.3622 5.41277 22.6435 5.39871 22.8962 5.38617C25.3297 5.265 25.4996 5.20313 27.4417 3.73172C27.6433 3.57902 27.8678 3.40898 28.121 3.21938C28.8472 2.67574 29.7858 2.67574 30.5121 3.21938C30.7653 3.40898 30.9898 3.57902 31.1915 3.73184C33.1334 5.20313 33.3033 5.265 35.7369 5.38617C35.9894 5.39871 36.2708 5.41277 36.5866 5.43035C37.4924 5.48074 38.2114 6.08402 38.4183 6.96738C38.4905 7.27535 38.5531 7.54992 38.6094 7.79648C39.1513 10.172 39.2417 10.3286 41.0279 11.9856C41.2134 12.1576 41.4199 12.3492 41.6505 12.5657C42.312 13.1865 42.475 14.1109 42.0657 14.9205C41.9231 15.2027 41.7945 15.4533 41.6791 15.6784C40.5672 17.8465 40.5359 18.0246 40.8391 20.4421C40.8706 20.6931 40.9056 20.9726 40.9431 21.2868C41.0507 22.1876 40.5815 23.0004 39.7475 23.3575C39.4867 23.469 39.2255 23.5797 38.964 23.6896C36.7188 24.6357 36.5802 24.752 35.2584 26.7989C35.1213 27.0113 34.9685 27.248 34.7954 27.5126C34.2988 28.2718 33.4165 28.5928 32.5484 28.3304C32.2456 28.2389 31.9765 28.1558 31.7349 28.0813C30.5708 27.7221 29.9436 27.5425 29.3163 27.5425C28.689 27.5425 28.0618 27.7221 26.8976 28.0813C26.656 28.1558 26.3868 28.2389 26.084 28.3304C25.2159 28.5929 24.3336 28.2718 23.837 27.5126C23.6638 27.2479 23.511 27.0111 23.3738 26.7987C22.0522 24.752 21.9137 24.6357 19.6683 23.6896C19.4353 23.5914 19.1757 23.482 18.8849 23.3575C18.0509 23.0003 17.5817 22.1876 17.6894 21.2868C17.7269 20.9727 17.7621 20.6933 17.7935 20.4423C18.0966 18.0247 18.0652 17.8466 16.9535 15.6786C16.838 15.4536 16.7095 15.203 16.5669 14.9207C16.1581 14.1109 16.3211 13.1865 16.9825 12.5657ZM29.3166 24.7617C34.3593 24.7617 38.4619 20.6592 38.4619 15.6165C38.4619 10.5738 34.3594 6.47121 29.3166 6.47121C24.2738 6.47121 20.1713 10.5737 20.1713 15.6165C20.1713 20.6592 24.2739 24.7617 29.3166 24.7617ZM29.3166 8.34621C33.3255 8.34621 36.5869 11.6077 36.5869 15.6165C36.5869 19.6253 33.3255 22.8867 29.3166 22.8867C25.3078 22.8867 22.0463 19.6253 22.0463 15.6165C22.0463 11.6077 25.3078 8.34621 29.3166 8.34621ZM24.7949 16.5091C24.7063 16.4224 24.6357 16.319 24.5873 16.2049C24.5389 16.0907 24.5136 15.9681 24.5129 15.8441C24.5122 15.7201 24.5361 15.5972 24.5833 15.4825C24.6304 15.3678 24.6998 15.2636 24.7875 15.1759C24.8752 15.0883 24.9794 15.0188 25.0941 14.9717C25.2087 14.9246 25.3316 14.9007 25.4556 14.9014C25.5796 14.9021 25.7023 14.9273 25.8164 14.9758C25.9306 15.0242 26.034 15.0947 26.1207 15.1834L27.7399 16.8026L32.5451 12.4417C32.7293 12.2746 32.9722 12.1875 33.2206 12.1995C33.469 12.2116 33.7024 12.3218 33.8695 12.5059C34.0366 12.69 34.1237 12.933 34.1116 13.1814C34.0996 13.4297 33.9894 13.6631 33.8053 13.8302L28.3386 18.7914C28.1663 18.9481 27.9416 19.0349 27.7087 19.0346C27.5855 19.0348 27.4636 19.0106 27.3498 18.9635C27.236 18.9164 27.1326 18.8472 27.0456 18.7601L24.7949 16.5091ZM55.4076 6.8659L50.756 1.38727C50.6364 1.24618 50.4875 1.13286 50.3197 1.05518C50.1518 0.977505 49.9691 0.937346 49.7841 0.9375C49.4091 0.9375 49.0546 1.10133 48.812 1.38703L48.8119 1.38715L44.1604 6.86566C43.8349 7.24898 43.7637 7.77059 43.9748 8.2268C44.1858 8.68313 44.6295 8.96648 45.1325 8.96648H46.3614V19.7046C46.3614 20.5942 47.0851 21.3178 47.9746 21.3178H51.5934C52.4829 21.3178 53.2066 20.5942 53.2066 19.7046V8.96672H54.4356C54.9386 8.96672 55.3823 8.68324 55.5933 8.22703C55.8043 7.77082 55.7331 7.24922 55.4076 6.8659ZM52.269 7.09172C52.0203 7.09172 51.7819 7.19049 51.606 7.36631C51.4302 7.54212 51.3315 7.78058 51.3315 8.02922V19.443H48.2363V8.02922C48.2363 7.78058 48.1375 7.54212 47.9617 7.36631C47.7859 7.19049 47.5474 7.09172 47.2988 7.09172H46.428L49.7839 3.13922L53.1397 7.09172H52.269ZM4.19771 8.96672H5.42666V19.7048C5.42666 20.5944 6.15029 21.318 7.03986 21.318H10.6586C11.5482 21.318 12.2718 20.5944 12.2718 19.7048V8.96672H13.5009C14.0038 8.96672 14.4475 8.68324 14.6586 8.22703C14.8696 7.77082 14.7985 7.24922 14.4731 6.86602L9.82142 1.38727C9.70181 1.24619 9.5529 1.13287 9.38505 1.0552C9.21719 0.977525 9.03443 0.937361 8.84947 0.9375C8.47447 0.9375 8.11998 1.10133 7.8774 1.38703L7.87728 1.38715L3.22576 6.86566C2.90021 7.24898 2.82908 7.77059 3.04014 8.2268C3.25119 8.68324 3.69474 8.96672 4.19771 8.96672ZM8.84935 3.13922L12.2051 7.09172H11.3344C11.0858 7.09172 10.8473 7.19049 10.6715 7.36631C10.4957 7.54212 10.3969 7.78058 10.3969 8.02922V19.443H7.30166V8.02922C7.30166 7.78058 7.20289 7.54212 7.02707 7.36631C6.85126 7.19049 6.6128 7.09172 6.36416 7.09172H5.49334L8.84935 3.13922Z" fill="black"/>
</svg>
