<svg width="61" height="60" viewBox="0 0 61 60" fill="none" xmlns="http://www.w3.org/2000/svg">
<path d="M40.1748 39.375C40.1748 38.3804 39.7797 37.4266 39.0765 36.7234C38.3732 36.0201 37.4194 35.625 36.4248 35.625H24.3592L25.1748 29.175C25.1794 29.1376 25.1794 29.0999 25.1748 29.0625C25.1748 23.8687 21.4998 22.5 19.5498 22.5C19.3394 22.4922 19.1325 22.5555 18.9624 22.6797C18.7923 22.8038 18.669 22.9816 18.6123 23.1844L14.8623 36.2062C14.2324 37.4483 13.2553 38.4808 12.0498 39.1781V38.4375C12.0498 38.1889 11.951 37.9504 11.7752 37.7746C11.5994 37.5988 11.3609 37.5 11.1123 37.5H1.7373C1.48866 37.5 1.25021 37.5988 1.07439 37.7746C0.898577 37.9504 0.799805 38.1889 0.799805 38.4375L0.799805 59.0625C0.799805 59.3111 0.898577 59.5496 1.07439 59.7254C1.25021 59.9012 1.48866 60 1.7373 60H11.1123C11.3609 60 11.5994 59.9012 11.7752 59.7254C11.951 59.5496 12.0498 59.3111 12.0498 59.0625V58.4344L17.4217 60C17.5054 60.0143 17.591 60.0143 17.6748 60H33.6123C34.3225 59.99 35.0153 59.7785 35.61 59.3901C36.2047 59.0017 36.6769 58.4523 36.9715 57.806C37.2662 57.1597 37.3712 56.4431 37.2745 55.7394C37.1777 55.0357 36.883 54.374 36.4248 53.8312C36.8892 53.5517 37.2875 53.1749 37.5922 52.7267C37.8969 52.2784 38.1009 51.7695 38.19 51.2348C38.2791 50.7002 38.2512 50.1526 38.1083 49.6297C37.9655 49.1069 37.7109 48.6213 37.3623 48.2062C37.8267 47.9267 38.225 47.5499 38.5297 47.1017C38.8344 46.6534 39.0384 46.1445 39.1275 45.6098C39.2166 45.0752 39.1887 44.5276 39.0458 44.0047C38.903 43.4819 38.6484 42.9963 38.2998 42.5812C38.8638 42.2556 39.3334 41.7888 39.6621 41.2266C39.9909 40.6644 40.1676 40.0262 40.1748 39.375ZM10.1748 58.125H2.6748V39.375H10.1748V58.125ZM33.6123 58.125H17.8061L12.0498 56.4844V41.1375C14.8623 40.4906 16.5592 37.1438 16.6342 36.9844C16.6601 36.9298 16.682 36.8734 16.6998 36.8156L20.2342 24.4594C21.3311 24.7031 23.2811 25.6125 23.2998 29.0063L22.3623 36.45C22.3463 36.5809 22.358 36.7136 22.3968 36.8396C22.4356 36.9656 22.5005 37.082 22.5873 37.1812C22.6762 37.2824 22.7859 37.3633 22.9088 37.4183C23.0318 37.4733 23.1651 37.5012 23.2998 37.5H36.4248C36.9221 37.5 37.399 37.6975 37.7506 38.0492C38.1023 38.4008 38.2998 38.8777 38.2998 39.375C38.2998 39.8723 38.1023 40.3492 37.7506 40.7008C37.399 41.0525 36.9221 41.25 36.4248 41.25H31.7373C31.4887 41.25 31.2502 41.3488 31.0744 41.5246C30.8986 41.7004 30.7998 41.9389 30.7998 42.1875C30.7998 42.4361 30.8986 42.6746 31.0744 42.8504C31.2502 43.0262 31.4887 43.125 31.7373 43.125H35.4873C35.9846 43.125 36.4615 43.3225 36.8131 43.6742C37.1648 44.0258 37.3623 44.5027 37.3623 45C37.3623 45.4973 37.1648 45.9742 36.8131 46.3258C36.4615 46.6775 35.9846 46.875 35.4873 46.875H30.7998C30.5512 46.875 30.3127 46.9738 30.1369 47.1496C29.9611 47.3254 29.8623 47.5639 29.8623 47.8125C29.8623 48.0611 29.9611 48.2996 30.1369 48.4754C30.3127 48.6512 30.5512 48.75 30.7998 48.75H34.5498C35.0471 48.75 35.524 48.9475 35.8756 49.2992C36.2273 49.6508 36.4248 50.1277 36.4248 50.625C36.4248 51.1223 36.2273 51.5992 35.8756 51.9508C35.524 52.3025 35.0471 52.5 34.5498 52.5H29.8623C29.6137 52.5 29.3752 52.5988 29.1994 52.7746C29.0236 52.9504 28.9248 53.1889 28.9248 53.4375C28.9248 53.6861 29.0236 53.9246 29.1994 54.1004C29.3752 54.2762 29.6137 54.375 29.8623 54.375H33.6123C34.1096 54.375 34.5865 54.5725 34.9381 54.9242C35.2898 55.2758 35.4873 55.7527 35.4873 56.25C35.4873 56.7473 35.2898 57.2242 34.9381 57.5758C34.5865 57.9275 34.1096 58.125 33.6123 58.125ZM12.9873 14.0625H13.9248V15C13.9248 15.2486 14.0236 15.4871 14.1994 15.6629C14.3752 15.8387 14.6137 15.9375 14.8623 15.9375C15.1109 15.9375 15.3494 15.8387 15.5252 15.6629C15.701 15.4871 15.7998 15.2486 15.7998 15V14.0625H16.7373C16.9859 14.0625 17.2244 13.9637 17.4002 13.7879C17.576 13.6121 17.6748 13.3736 17.6748 13.125C17.6748 12.8764 17.576 12.6379 17.4002 12.4621C17.2244 12.2863 16.9859 12.1875 16.7373 12.1875H15.7998V11.25C15.7998 11.0014 15.701 10.7629 15.5252 10.5871C15.3494 10.4113 15.1109 10.3125 14.8623 10.3125C14.6137 10.3125 14.3752 10.4113 14.1994 10.5871C14.0236 10.7629 13.9248 11.0014 13.9248 11.25V12.1875H12.9873C12.7387 12.1875 12.5002 12.2863 12.3244 12.4621C12.1486 12.6379 12.0498 12.8764 12.0498 13.125C12.0498 13.3736 12.1486 13.6121 12.3244 13.7879C12.5002 13.9637 12.7387 14.0625 12.9873 14.0625ZM51.4248 46.875H50.4873V45.9375C50.4873 45.6889 50.3885 45.4504 50.2127 45.2746C50.0369 45.0988 49.7984 45 49.5498 45C49.3012 45 49.0627 45.0988 48.8869 45.2746C48.7111 45.4504 48.6123 45.6889 48.6123 45.9375V46.875H47.6748C47.4262 46.875 47.1877 46.9738 47.0119 47.1496C46.8361 47.3254 46.7373 47.5639 46.7373 47.8125C46.7373 48.0611 46.8361 48.2996 47.0119 48.4754C47.1877 48.6512 47.4262 48.75 47.6748 48.75H48.6123V49.6875C48.6123 49.9361 48.7111 50.1746 48.8869 50.3504C49.0627 50.5262 49.3012 50.625 49.5498 50.625C49.7984 50.625 50.0369 50.5262 50.2127 50.3504C50.3885 50.1746 50.4873 49.9361 50.4873 49.6875V48.75H51.4248C51.6734 48.75 51.9119 48.6512 52.0877 48.4754C52.2635 48.2996 52.3623 48.0611 52.3623 47.8125C52.3623 47.5639 52.2635 47.3254 52.0877 47.1496C51.9119 46.9738 51.6734 46.875 51.4248 46.875Z" fill="black"/>
<path d="M40.1748 6.04993e-05C34.7047 6.04993e-05 29.4587 2.17305 25.5907 6.04098C21.7228 9.90892 19.5498 15.155 19.5498 20.6251C19.5498 20.8737 19.6486 21.1122 19.8244 21.288C20.0002 21.4638 20.2387 21.5626 20.4873 21.5626C20.7359 21.5626 20.9744 21.4638 21.1502 21.288C21.326 21.1122 21.4248 20.8737 21.4248 20.6251C21.4259 17.0698 22.4378 13.5882 24.3424 10.5861C26.247 7.5841 28.9659 5.18544 32.182 3.66989C35.398 2.15434 38.9786 1.58437 42.5063 2.02645C46.0339 2.46852 49.3632 3.90443 52.1058 6.16671C54.8484 8.42898 56.8913 11.4244 57.9963 14.8036C59.1012 18.1827 59.2226 21.8064 58.3464 25.252C57.4702 28.6976 55.6324 31.823 53.0475 34.2639C50.4625 36.7047 47.2368 38.3603 43.7467 39.0376C43.498 39.0612 43.269 39.1826 43.1099 39.3751C42.9507 39.5676 42.8746 39.8155 42.8982 40.0641C42.9219 40.3128 43.0433 40.5418 43.2358 40.701C43.4283 40.8601 43.6762 40.9362 43.9248 40.9126H44.1029C49.1852 39.9833 53.7336 37.1805 56.8485 33.0585C59.9633 28.9365 61.4177 23.7956 60.9239 18.6527C60.4302 13.5098 58.0242 8.73955 54.1819 5.28553C50.3397 1.83151 45.341 -0.0546846 40.1748 6.04993e-05Z" fill="black"/>
<path d="M48.6123 24.375C48.6123 22.3859 47.8221 20.4782 46.4156 19.0717C45.0091 17.6652 43.1014 16.875 41.1123 16.875H39.2373C38.74 16.875 38.2631 16.6775 37.9115 16.3258C37.5598 15.9742 37.3623 15.4973 37.3623 15C37.3623 14.5027 37.5598 14.0258 37.9115 13.6742C38.2631 13.3225 38.74 13.125 39.2373 13.125H45.7998C46.5457 13.125 47.2611 12.8287 47.7885 12.3012C48.316 11.7738 48.6123 11.0584 48.6123 10.3125C48.6123 9.56658 48.316 8.85121 47.7885 8.32376C47.2611 7.79632 46.5457 7.5 45.7998 7.5H42.9873V4.6875C42.9873 4.43886 42.8885 4.2004 42.7127 4.02459C42.5369 3.84877 42.2984 3.75 42.0498 3.75H38.2998C38.0512 3.75 37.8127 3.84877 37.6369 4.02459C37.4611 4.2004 37.3623 4.43886 37.3623 4.6875V7.74375C35.5998 8.20438 34.0652 9.29075 33.045 10.8C32.0249 12.3093 31.5889 14.1382 31.8185 15.9454C32.0482 17.7526 32.9277 19.4144 34.2929 20.6206C35.6581 21.8267 37.4156 22.4948 39.2373 22.5H41.1123C41.6096 22.5 42.0865 22.6975 42.4381 23.0492C42.7898 23.4008 42.9873 23.8777 42.9873 24.375C42.9873 24.8723 42.7898 25.3492 42.4381 25.7008C42.0865 26.0525 41.6096 26.25 41.1123 26.25H34.5498C33.8039 26.25 33.0885 26.5463 32.5611 27.0738C32.0336 27.6012 31.7373 28.3166 31.7373 29.0625C31.7373 29.8084 32.0336 30.5238 32.5611 31.0512C33.0885 31.5787 33.8039 31.875 34.5498 31.875H37.3623V34.6875C37.3623 34.9361 37.4611 35.1746 37.6369 35.3504C37.8127 35.5262 38.0512 35.625 38.2998 35.625H42.0498C42.2984 35.625 42.5369 35.5262 42.7127 35.3504C42.8885 35.1746 42.9873 34.9361 42.9873 34.6875V31.6313C44.5963 31.2158 46.0218 30.2778 47.0399 28.9644C48.058 27.6511 48.6111 26.0368 48.6123 24.375ZM41.9186 29.9344C41.6933 29.9662 41.4873 30.0789 41.339 30.2514C41.1906 30.4238 41.1101 30.6444 41.1123 30.8719V33.75H39.2373V30.9375C39.2373 30.6889 39.1385 30.4504 38.9627 30.2746C38.7869 30.0988 38.5484 30 38.2998 30H34.5498C34.3012 30 34.0627 29.9012 33.8869 29.7254C33.7111 29.5496 33.6123 29.3111 33.6123 29.0625C33.6123 28.8139 33.7111 28.5754 33.8869 28.3996C34.0627 28.2238 34.3012 28.125 34.5498 28.125H41.1123C42.1069 28.125 43.0607 27.7299 43.764 27.0266C44.4672 26.3234 44.8623 25.3696 44.8623 24.375C44.8623 23.3804 44.4672 22.4266 43.764 21.7234C43.0607 21.0201 42.1069 20.625 41.1123 20.625H39.2373C37.824 20.6127 36.4671 20.0687 35.4366 19.1014C34.4061 18.1341 33.7776 16.8144 33.6759 15.4047C33.5743 13.995 34.0071 12.5987 34.8882 11.4936C35.7693 10.3885 37.0341 9.65554 38.4311 9.44062C38.6563 9.40879 38.8623 9.29612 39.0106 9.12364C39.159 8.95115 39.2395 8.73061 39.2373 8.50312V5.625H41.1123V8.4375C41.1123 8.68614 41.2111 8.9246 41.3869 9.10041C41.5627 9.27623 41.8012 9.375 42.0498 9.375H45.7998C46.0484 9.375 46.2869 9.47377 46.4627 9.64959C46.6385 9.8254 46.7373 10.0639 46.7373 10.3125C46.7373 10.5611 46.6385 10.7996 46.4627 10.9754C46.2869 11.1512 46.0484 11.25 45.7998 11.25H39.2373C38.2427 11.25 37.2889 11.6451 36.5857 12.3483C35.8824 13.0516 35.4873 14.0054 35.4873 15C35.4873 15.9946 35.8824 16.9484 36.5857 17.6516C37.2889 18.3549 38.2427 18.75 39.2373 18.75H41.1123C42.5256 18.7623 43.8825 19.3063 44.913 20.2736C45.9435 21.2409 46.572 22.5606 46.6737 23.9703C46.7753 25.38 46.3425 26.7763 45.4614 27.8814C44.5803 28.9865 43.3155 29.7195 41.9186 29.9344Z" fill="black"/>
</svg>
