<svg width="61" height="60" viewBox="0 0 61 60" fill="none" xmlns="http://www.w3.org/2000/svg">
<g clip-path="url(#clip0_602_419)">
<path d="M23.1446 3.66797C21.6106 3.66797 20.3638 4.91602 20.3638 6.44883C20.3638 7.98164 21.6106 9.22969 23.1446 9.22969C24.6786 9.22969 25.9255 7.98281 25.9255 6.44883C25.9255 4.91484 24.6786 3.66797 23.1446 3.66797ZM23.1446 7.45547C22.5903 7.45547 22.1392 7.0043 22.1392 6.44883C22.1392 5.89336 22.5903 5.44336 23.1446 5.44336C23.6989 5.44336 24.1513 5.89453 24.1513 6.44883C24.1513 7.00312 23.6989 7.45547 23.1446 7.45547Z" fill="black"/>
<path d="M8.2335 3.66797C6.69951 3.66797 5.45264 4.91602 5.45264 6.44883C5.45264 7.98164 6.70068 9.22969 8.2335 9.22969C9.76631 9.22969 11.0144 7.98164 11.0144 6.44883C11.0144 4.91602 9.76748 3.66797 8.2335 3.66797ZM8.2335 7.45547C7.6792 7.45547 7.22686 7.0043 7.22686 6.44883C7.22686 5.89336 7.67803 5.44336 8.2335 5.44336C8.78896 5.44336 9.23897 5.89453 9.23897 6.44883C9.23897 7.00312 8.78779 7.45547 8.2335 7.45547Z" fill="black"/>
<path d="M15.6893 3.66797C14.1553 3.66797 12.9072 4.91602 12.9072 6.44883C12.9072 7.98164 14.1553 9.22969 15.6893 9.22969C17.2232 9.22969 18.4701 7.98281 18.4701 6.44883C18.4701 4.91484 17.2232 3.66797 15.6893 3.66797ZM15.6893 7.45547C15.1338 7.45547 14.6826 7.0043 14.6826 6.44883C14.6826 5.89336 15.1338 5.44336 15.6893 5.44336C16.2447 5.44336 16.6947 5.89453 16.6947 6.44883C16.6947 7.00312 16.2436 7.45547 15.6893 7.45547Z" fill="black"/>
<path d="M60.6001 3.2543C60.6001 1.46016 59.1399 0 57.3458 0H3.85439C2.06025 0 0.600098 1.46016 0.600098 3.2543V42.4254C0.600098 44.2195 2.06025 45.6797 3.85439 45.6797H9.58018C9.30478 46.0324 9.33643 46.5363 9.65283 46.8527L13.9173 51.1172C13.5985 51.7723 13.3185 52.4461 13.0806 53.1352H7.0501C6.56025 53.1352 6.16299 53.5324 6.16299 54.0223V59.1117C6.16299 59.6016 6.56025 59.9988 7.0501 59.9988H24.5649C25.0548 59.9988 25.4521 59.6016 25.4521 59.1117C25.4521 56.4035 27.6552 54.2004 30.3634 54.2004C33.0716 54.2004 35.2747 56.4035 35.2747 59.1117C35.2747 59.6016 35.672 59.9988 36.1618 59.9988H53.6767C54.1665 59.9988 54.5638 59.6016 54.5649 59.1117V54.0223C54.5649 53.5324 54.1677 53.1352 53.6778 53.1352H47.6474C47.4095 52.4461 47.1294 51.7723 46.8095 51.1172L51.0751 46.8527C51.395 46.5328 51.4185 46.0277 51.1466 45.6797H57.3458C59.1399 45.6797 60.6001 44.2195 60.6001 42.4254V20.7281C60.6001 20.7281 60.6001 20.7223 60.6001 20.7188V3.2543ZM2.37549 3.2543C2.37549 2.43867 3.03877 1.77539 3.85439 1.77539H57.3458C58.1614 1.77539 58.8247 2.43867 58.8247 3.2543V11.1246H2.37549V3.2543ZM36.9915 58.2246C36.5567 54.9563 33.7501 52.4262 30.3646 52.4262C26.979 52.4262 24.1724 54.9563 23.7376 58.2246H18.7407C18.9563 55.3102 20.2337 52.6324 22.3923 50.6074C22.4251 50.577 22.4532 50.5441 22.4802 50.5102C23.1106 49.9301 23.8009 49.4215 24.5462 48.9938C24.8567 48.8156 25.1778 48.6516 25.5048 48.5027C25.5458 48.491 25.5868 48.4781 25.6267 48.4594C26.6474 48.0047 27.7138 47.7035 28.813 47.5582C28.9431 47.5418 29.0743 47.5266 29.2032 47.516V47.5137C29.5864 47.4762 29.9743 47.4563 30.3646 47.4563C36.4935 47.4563 41.5325 52.2106 41.9872 58.2246H36.9915ZM45.0997 50.318C44.8231 50.5945 44.761 51.0188 44.9438 51.3633C45.4407 52.2949 45.8462 53.2734 46.1544 54.2824C46.2681 54.6551 46.6126 54.9106 47.0028 54.9106H52.7896V58.2246H43.7661C43.3079 51.2309 37.472 45.6809 30.3646 45.6809C28.4638 45.6809 26.6274 46.0699 24.9036 46.8375C24.872 46.8516 24.8415 46.868 24.811 46.8855C24.4208 47.0625 24.0388 47.257 23.6696 47.4691C22.7966 47.9707 21.9892 48.5684 21.2532 49.2504C21.2274 49.2691 21.2017 49.2902 21.1782 49.3125C18.6962 51.6398 17.1892 54.8484 16.963 58.2246H7.93721V54.9106H13.7239C14.1142 54.9106 14.4587 54.6563 14.5735 54.2824C14.8817 53.2723 15.2872 52.2949 15.7841 51.3633C15.9681 51.0188 15.9048 50.5945 15.6282 50.318L11.5349 46.2246L12.3399 45.4207L17.4763 40.2844L21.5685 44.3777C21.845 44.6543 22.2692 44.7164 22.6138 44.5336C23.5454 44.0367 24.5239 43.6313 25.5329 43.3231C25.9056 43.2094 26.161 42.8637 26.161 42.4734V36.6867H34.5634V42.4734C34.5634 42.8637 34.8188 43.2082 35.1915 43.3231C36.2017 43.6324 37.179 44.0379 38.1106 44.5336C38.4552 44.7176 38.8794 44.6543 39.156 44.3777L43.2493 40.2844L48.3845 45.4207L49.1896 46.2246L45.0974 50.318H45.0997ZM17.6415 20.7504V25.9746C17.6415 26.2793 17.7985 26.5629 18.0563 26.7258L21.2521 28.7379C21.5415 28.9195 21.9083 28.9195 22.1978 28.7379L25.3935 26.7258C25.6513 26.5629 25.8083 26.2793 25.8083 25.9746V19.6969L28.7673 22.6184V29.1574L25.3583 32.5664C25.1919 32.7328 25.0981 32.959 25.0981 33.1945V34.9277C24.6845 35.0121 24.388 35.3754 24.388 35.7973V41.8277C23.6989 42.0656 23.0251 42.3457 22.3688 42.6645L18.3517 38.6473V33.1934C18.3517 32.9578 18.2579 32.7316 18.0915 32.5652L14.6825 29.1563V22.6172L17.6415 19.6957V20.7492V20.7504ZM37.8294 25.2047L36.7032 24.1641L38.4739 18.4594H39.5321L41.3028 24.1641L40.1767 25.2047C39.995 25.3723 39.8907 25.609 39.8907 25.8574V31.7156H38.1165V25.8574C38.1165 25.6102 38.0122 25.3734 37.8306 25.2047H37.8294ZM42.3751 33.4898V38.6473L38.3579 42.6645C37.7028 42.3457 37.0278 42.0656 36.3388 41.8277V35.7984C36.3388 35.3766 36.0423 35.0133 35.6286 34.9289V33.491H42.3739L42.3751 33.4898ZM58.8247 20.4668V42.4242C58.8247 43.2398 58.1614 43.9031 57.3458 43.9031H49.3817L44.1505 38.6719V32.6016C44.1505 32.1117 43.7532 31.7145 43.2634 31.7145H41.6661V26.2453L42.9188 25.0887C43.1708 24.8566 43.2657 24.5004 43.1649 24.1734L41.0345 17.3098C40.9185 16.9383 40.5751 16.6852 40.1872 16.6852H37.82C37.431 16.6852 37.0876 16.9383 36.9728 17.3098L34.8435 24.1734C34.7415 24.5004 34.8376 24.8566 35.0896 25.0887L36.3423 26.2453V31.7145H34.745C34.2552 31.7145 33.8579 32.1117 33.8579 32.6016V34.909H26.8759V33.5613L30.2849 30.1523C30.4513 29.9859 30.545 29.7598 30.545 29.5254V22.2469C30.545 22.0102 30.4501 21.7828 30.2802 21.6152L25.547 16.9406C25.1978 16.5961 24.6364 16.5996 24.2919 16.9488C24.1278 17.1152 24.0364 17.3391 24.0353 17.5723V25.4848L21.7278 26.9379L19.4204 25.4848V20.8219V17.5723C19.4204 17.2137 19.2048 16.8914 18.8743 16.7531C18.5438 16.6148 18.163 16.6887 17.9087 16.9406L13.1755 21.6152C13.0067 21.7816 12.9118 22.009 12.9118 22.2469V29.5254C12.9118 29.7609 13.0056 29.9859 13.172 30.1535L16.581 33.5625V38.673L11.3497 43.9043H3.85439C3.03877 43.9043 2.37549 43.241 2.37549 42.4254V12.8988H58.8247V20.4457C58.8247 20.4457 58.8247 20.4469 58.8247 20.448C58.8247 20.4551 58.8247 20.4621 58.8247 20.468V20.4668Z" fill="black"/>
</g>
<defs>
<clipPath id="clip0_602_419">
<rect width="60" height="60" fill="white" transform="translate(0.600098)"/>
</clipPath>
</defs>
</svg>
