<svg width="60" height="60" viewBox="0 0 60 60" fill="none" xmlns="http://www.w3.org/2000/svg">
<path d="M54 27H56V7C56 6.73478 55.8946 6.48043 55.7071 6.29289C55.5196 6.10536 55.2652 6 55 6H45V8H54V27ZM0.140125 52.9941C0.183511 53.1829 0.241305 53.368 0.313 53.5479C0.34425 53.6241 0.392125 53.6909 0.42825 53.7641C0.501987 53.9246 0.586471 54.0799 0.681125 54.229C0.817721 54.4294 0.972005 54.6172 1.14213 54.79C1.15375 54.8018 1.16113 54.8159 1.17288 54.8271C1.185 54.8379 1.19825 54.8463 1.21 54.8579C1.38285 55.028 1.5706 55.1823 1.771 55.3189C1.92009 55.4135 2.0754 55.498 2.23588 55.5718C2.30913 55.608 2.37588 55.6558 2.45213 55.687C2.63202 55.7587 2.81714 55.8165 3.00588 55.8599C3.07325 55.877 3.13375 55.9058 3.206 55.919C3.46725 55.9728 3.7335 55.9995 4 56H27V54H4C3.86575 54 3.7315 53.9869 3.6 53.96C3.55425 53.9513 3.51125 53.9321 3.46588 53.919C3.38437 53.8995 3.30427 53.8745 3.22613 53.8443C3.15725 53.813 3.09038 53.7779 3.02588 53.7388C2.979 53.7119 2.92588 53.6909 2.88375 53.6621C2.66657 53.5153 2.4796 53.3282 2.333 53.1109C2.30425 53.0659 2.28325 53.0161 2.25588 52.9693C2.21675 52.9043 2.18213 52.838 2.15088 52.769C2.12031 52.6908 2.09534 52.6105 2.07613 52.5288C2.063 52.4839 2.044 52.4409 2.03513 52.395C1.97647 52.1043 1.9832 51.8043 2.05483 51.5165C2.12646 51.2287 2.2612 50.9605 2.44928 50.7313C2.63736 50.502 2.87408 50.3175 3.14228 50.191C3.41049 50.0645 3.70347 49.9993 4 50H7C7.26522 50 7.51957 49.8946 7.70711 49.7071C7.89464 49.5196 8 49.2652 8 49V8H33V6H8V1C8 0.734784 7.89464 0.48043 7.70711 0.292893C7.51957 0.105357 7.26522 0 7 0L4 0C1.791 0 0 1.791 0 4V52C0 52.2685 0.027375 52.5366 0.081 52.7998C0.09425 52.8663 0.123 52.9268 0.140125 52.9941ZM2 4C2 2.8955 2.8955 2 4 2H6V48H4C3.29754 47.9989 2.60738 48.1842 2 48.5371V4Z" fill="black"/>
<path d="M34 46C34.2652 46 34.5196 45.8946 34.7071 45.7071C34.8946 45.5196 35 45.2652 35 45C35.0043 44.0813 34.8253 43.1709 34.4735 42.3222C34.1217 41.4735 33.6042 40.7034 32.9513 40.0571C32.1344 39.2262 31.1184 38.6182 30 38.291V35H31C31.2652 35 31.5196 34.8946 31.7071 34.7071C31.8946 34.5196 32 34.2652 32 34V30C32 29.7348 31.8946 29.4804 31.7071 29.2929C31.5196 29.1054 31.2652 29 31 29H30V25H24.1C24.5781 22.6734 26.625 21.0025 29 21H30V18H33V16H30V13C30 12.7348 29.8946 12.4804 29.7071 12.2929C29.5196 12.1054 29.2652 12 29 12H12C11.7348 12 11.4804 12.1054 11.2929 12.2929C11.1054 12.4804 11 12.7348 11 13V49C11 49.2652 11.1054 49.5196 11.2929 49.7071C11.4804 49.8946 11.7348 50 12 50H17V45.1C19.3266 45.5781 20.9975 47.625 21 50H33V48H30V46H34ZM30 33H28V31H30V33ZM28 17V19.08C24.5591 19.5766 22.0039 22.5235 22 26C22 26.2652 22.1054 26.5196 22.2929 26.7071C22.4804 26.8946 22.7348 27 23 27H28V29H27C26.7348 29 26.4804 29.1054 26.2929 29.2929C26.1054 29.4804 26 29.7348 26 30V31H17V30C17 29.7348 16.8946 29.4804 16.7071 29.2929C16.5196 29.1054 16.2652 29 16 29H13V18H16C16.2652 18 16.5196 17.8946 16.7071 17.7071C16.8946 17.5196 17 17.2652 17 17V14H28V17ZM13 31H15V33H13V31ZM13 14H15V16H13V14ZM13 48V46H15V48H13ZM22.7003 48C21.814 45.0381 19.0918 43.0063 16 43C15.7348 43 15.4804 43.1054 15.2929 43.2929C15.1054 43.4804 15 43.7348 15 44H13V35H16C16.2652 35 16.5196 34.8946 16.7071 34.7071C16.8946 34.5196 17 34.2652 17 34V33H26V34C26 34.2652 26.1054 34.5196 26.2929 34.7071C26.4804 34.8946 26.7348 35 27 35H28V39.0899C28 39.582 28.3575 40.001 28.8428 40.0781C29.8668 40.2409 30.8111 40.729 31.5361 41.4703C32.2335 42.1581 32.7086 43.0393 32.9 44H29C28.7348 44 28.4804 44.1054 28.2929 44.2929C28.1054 44.4804 28 44.7348 28 45V48H22.7003ZM46 22H49V32H51V17C51 16.7348 50.8946 16.4804 50.7071 16.2929C50.5196 16.1054 50.2652 16 50 16H46C45.7348 16 45.4804 16.1054 45.2929 16.2929C45.1054 16.4804 45 16.7348 45 17V21C45 21.2652 45.1054 21.5196 45.2929 21.7071C45.4804 21.8946 45.7348 22 46 22ZM49 18V20H47V18H49ZM59.3829 27.0763C59.2001 27.0005 58.999 26.9807 58.805 27.0193C58.611 27.0578 58.4328 27.1531 58.2929 27.293L27.2929 58.293C27.1531 58.4329 27.0578 58.611 27.0193 58.805C26.9807 58.999 27.0005 59.2 27.0762 59.3827C27.1519 59.5654 27.2801 59.7216 27.4445 59.8315C27.6089 59.9413 27.8022 60 28 60H59.0001C59.2653 60 59.5197 59.8946 59.7072 59.7071C59.8948 59.5196 60.0001 59.2652 60.0001 59V28C60.0001 27.8023 59.9414 27.609 59.8316 27.4445C59.7217 27.2801 59.5656 27.152 59.3829 27.0763ZM58 58H30.414L58 30.414V58Z" fill="black"/>
<path d="M42.0762 53.3829C42.152 53.5655 42.2802 53.7216 42.4446 53.8315C42.609 53.9413 42.8023 54 43 54H53C53.2652 54 53.5196 53.8946 53.7071 53.7071C53.8946 53.5196 54 53.2652 54 53V43C54 42.5958 53.7563 42.231 53.3828 42.0763C53.0093 41.9215 52.579 42.0074 52.293 42.293L42.293 52.293C42.1531 52.4329 42.0578 52.611 42.0192 52.805C41.9806 52.999 42.0006 53.2001 42.0762 53.3829ZM52 45.4141V52H45.414L52 45.4141ZM38.1431 36.5151C38.3237 36.8159 38.6489 36.9995 39 36.9995C39.3511 36.9995 39.6763 36.8159 39.8569 36.5151L42.8569 31.5151C42.9506 31.3596 43 31.1815 43 31V4C43 1.791 41.209 0 39 0C36.791 0 35 1.791 35 4V31C35 31.1816 35.0494 31.3594 35.1431 31.5151L38.1431 36.5151ZM39 34.0563L37.7661 32H40.2339L39 34.0563ZM37 30V8H41V30H37ZM39 2C40.1045 2 41 2.8955 41 4V6H37V4C37 2.8955 37.8955 2 39 2Z" fill="black"/>
</svg>
