<svg width="259" height="309" viewBox="0 0 259 309" fill="none" xmlns="http://www.w3.org/2000/svg">
<path d="M77.8619 58C47.0983 58 27.1727 70.583 11.529 93.0237C8.69117 97.0945 9.56606 102.676 13.5247 105.672L30.1508 118.258C34.1487 121.284 39.8371 120.576 42.967 116.662C52.6213 104.587 59.7828 97.6355 74.863 97.6355C86.7199 97.6355 101.386 105.253 101.386 116.732C101.386 125.409 94.2105 129.865 82.5031 136.418C68.8505 144.059 50.7837 153.569 50.7837 177.359V181.125C50.7837 186.225 54.925 190.359 60.0337 190.359H87.9652C93.0739 190.359 97.2152 186.225 97.2152 181.125V178.904C97.2152 162.413 145.496 161.726 145.496 117.1C145.496 83.493 110.576 58 77.8619 58ZM73.9996 201.694C59.2783 201.694 47.3014 213.651 47.3014 228.347C47.3014 243.043 59.2783 255 73.9996 255C88.721 255 100.698 243.043 100.698 228.347C100.698 213.65 88.721 201.694 73.9996 201.694Z" fill="white" fill-opacity="0.5"/>
<g clip-path="url(#clip0_501_2082)">
<path d="M202.426 217.348C191.034 209.704 180.488 209.473 169.046 214.004C166.97 214.826 165.889 217.137 166.601 219.245L169.589 228.097C170.308 230.226 172.592 231.374 174.737 230.683C181.351 228.553 185.753 227.725 191.337 231.472C195.728 234.418 199.241 240.92 196.351 245.226C194.167 248.482 190.388 248.37 184.403 247.919C177.424 247.393 168.34 246.471 162.351 255.395L161.403 256.808C160.119 258.721 160.612 261.301 162.503 262.571L172.846 269.512C174.738 270.781 177.312 270.259 178.596 268.346L179.155 267.513C183.307 261.327 201.358 273.066 212.592 256.326C221.053 243.719 214.54 225.478 202.426 217.348ZM164.821 270.293C159.37 266.635 151.925 268.144 148.225 273.658C144.526 279.171 145.951 286.632 151.402 290.29C156.853 293.949 164.298 292.439 167.998 286.926C171.698 281.413 170.273 273.952 164.821 270.293Z" fill="white" fill-opacity="0.5"/>
</g>
<g clip-path="url(#clip1_501_2082)">
<path d="M226.073 113.648C211.976 123.229 198.86 123.57 184.584 117.985C181.994 116.971 180.627 114.098 181.492 111.469L185.125 100.426C185.999 97.7705 188.829 96.3287 191.503 97.1781C199.752 99.7983 205.235 100.808 212.145 96.1112C217.579 92.4185 221.887 84.301 218.251 78.9519C215.503 74.9082 210.804 75.0661 203.363 75.6586C194.687 76.3495 183.396 77.5444 175.862 66.4581L174.669 64.703C173.054 62.3264 173.642 59.11 175.983 57.5189L188.782 48.8201C191.123 47.2291 194.33 47.866 195.946 50.2427L196.649 51.2778C201.872 58.9629 224.214 44.2468 238.347 65.043C248.992 80.7042 241.064 103.459 226.073 113.648ZM178.793 47.8873C172.047 52.472 162.772 50.6301 158.117 43.7813C153.462 36.9327 155.164 27.6308 161.91 23.0461C168.656 18.4613 177.931 20.3033 182.586 27.152C187.24 34.0008 185.539 43.3025 178.793 47.8873Z" fill="white" fill-opacity="0.5"/>
</g>
<defs>
<clipPath id="clip0_501_2082">
<rect width="66" height="89" fill="white" transform="translate(173.594 198) rotate(33.8647)"/>
</clipPath>
<clipPath id="clip1_501_2082">
<rect width="82" height="111" fill="white" transform="matrix(0.827069 -0.562101 -0.562101 -0.827069 190.394 137.897)"/>
</clipPath>
</defs>
</svg>
